<svg width="250" height="239" viewBox="0 0 250 239" fill="none" xmlns="http://www.w3.org/2000/svg">
<g clip-path="url(#clip0_251_10880)">
<circle cx="119.596" cy="119.5" r="118.733" fill="black" stroke="black" stroke-width="1.09769"/>
<circle cx="129.84" cy="119.5" r="118.733" fill="#0BABFB" stroke="black" stroke-width="1.09769"/>
<circle cx="129.84" cy="119.5" r="96.7793" fill="white" stroke="black" stroke-width="1.09769"/>
<path d="M111.314 162.348C101.206 162.586 90.9036 162.776 82.7182 162.808C81.756 162.811 81.2137 161.708 81.8013 160.946L114.569 118.453C115.334 117.461 116.358 116.687 117.562 116.339C129.214 112.972 144.499 116.519 147.396 122.371C149.644 134.992 124.13 162.045 111.314 162.348Z" fill="#E1E1E1" stroke="#1F1F1F" stroke-width="2.08734"/>
<path d="M118.651 138.682H83.9409C82.7307 138.682 82.035 137.305 82.7529 136.331L112.117 96.4761C112.859 95.4692 113.863 94.647 115.081 94.3616C125.079 92.0183 132.661 103.217 135.316 108.963C139.949 124.883 132.261 134.212 125.3 137.543C123.245 138.526 120.928 138.682 118.651 138.682Z" fill="#F1F1F1" stroke="#1F1F1F" stroke-width="2.08734"/>
<mask id="path-6-outside-1_251_10880" maskUnits="userSpaceOnUse" x="79.7588" y="75.1812" width="91" height="89" fill="black">
<rect fill="white" x="79.7588" y="75.1812" width="91" height="89"/>
<path d="M99.1683 80.3628C96.5265 84.4432 89.9351 94.7143 82.7695 106.57C82.3243 107.307 82.8501 108.247 83.7109 108.245C91.0521 108.23 100.301 108.134 106.929 108.055C112.623 107.986 118.544 108.343 123.357 111.387C125.56 112.781 127.283 114.347 128.657 115.966C132.624 120.639 134.082 127.153 132.299 133.017C128.506 145.49 115.997 159.573 110.572 161.19C115.508 161.19 120.385 160.345 125.036 158.988C150.372 151.596 176.422 125.939 165.957 101.71C165.562 100.797 165.105 99.8941 164.581 99.0061C152.095 77.8567 118.652 77.6546 102.613 78.3759C101.205 78.4392 99.934 79.1801 99.1683 80.3628Z"/>
</mask>
<path d="M99.1683 80.3628C96.5265 84.4432 89.9351 94.7143 82.7695 106.57C82.3243 107.307 82.8501 108.247 83.7109 108.245C91.0521 108.23 100.301 108.134 106.929 108.055C112.623 107.986 118.544 108.343 123.357 111.387C125.56 112.781 127.283 114.347 128.657 115.966C132.624 120.639 134.082 127.153 132.299 133.017C128.506 145.49 115.997 159.573 110.572 161.19C115.508 161.19 120.385 160.345 125.036 158.988C150.372 151.596 176.422 125.939 165.957 101.71C165.562 100.797 165.105 99.8941 164.581 99.0061C152.095 77.8567 118.652 77.6546 102.613 78.3759C101.205 78.4392 99.934 79.1801 99.1683 80.3628Z" fill="white"/>
<path d="M82.7695 106.57L84.5559 107.65L84.5559 107.65L82.7695 106.57ZM99.1683 80.3628L97.4162 79.2284L97.4162 79.2284L99.1683 80.3628ZM102.613 78.3759L102.519 76.2906H102.519L102.613 78.3759ZM164.581 99.0061L162.784 100.067V100.067L164.581 99.0061ZM165.957 101.71L167.873 100.883V100.883L165.957 101.71ZM125.036 158.988L125.62 160.992L125.62 160.992L125.036 158.988ZM110.572 161.19L109.976 159.189C108.983 159.485 108.357 160.465 108.506 161.491C108.656 162.516 109.536 163.277 110.572 163.277V161.19ZM132.299 133.017L130.302 132.41L132.299 133.017ZM128.657 115.966L130.248 114.615V114.615L128.657 115.966ZM123.357 111.387L122.241 113.151L123.357 111.387ZM106.929 108.055L106.954 110.142L106.929 108.055ZM83.7109 108.245L83.7152 110.332H83.7152L83.7109 108.245ZM84.5559 107.65C91.7061 95.8194 98.285 85.5679 100.92 81.4972L97.4162 79.2284C94.7681 83.3184 88.164 93.6093 80.9831 105.491L84.5559 107.65ZM102.707 80.4611C110.677 80.1027 122.829 79.9839 134.484 82.5288C146.176 85.0816 156.973 90.225 162.784 100.067L166.379 97.9449C159.703 86.6379 147.536 81.1054 135.375 78.4502C123.177 75.787 110.588 75.9278 102.519 76.2906L102.707 80.4611ZM162.784 100.067C163.263 100.879 163.68 101.703 164.04 102.538L167.873 100.883C167.444 99.8903 166.948 98.9095 166.379 97.9449L162.784 100.067ZM124.451 156.984C119.95 158.298 115.272 159.102 110.572 159.102V163.277C115.744 163.277 120.82 162.392 125.62 160.992L124.451 156.984ZM111.168 163.19C112.975 162.652 115.056 161.213 117.095 159.432C119.197 157.596 121.47 155.203 123.669 152.489C128.049 147.084 132.294 140.207 134.296 133.625L130.302 132.41C128.511 138.3 124.606 144.701 120.426 149.86C118.346 152.428 116.237 154.638 114.349 156.288C112.399 157.991 110.881 158.919 109.976 159.189L111.168 163.19ZM130.248 114.615C128.744 112.843 126.862 111.135 124.472 109.623L122.241 113.151C124.258 114.427 125.822 115.852 127.066 117.317L130.248 114.615ZM106.904 105.967C100.277 106.047 91.0368 106.142 83.7065 106.158L83.7152 110.332C91.0673 110.317 100.325 110.221 106.954 110.142L106.904 105.967ZM164.04 102.538C168.858 113.691 165.381 125.342 157.298 135.352C149.209 145.369 136.733 153.401 124.451 156.984L125.62 160.992C138.674 157.183 151.892 148.691 160.546 137.975C169.206 127.251 173.521 113.959 167.873 100.883L164.04 102.538ZM124.472 109.623C119.096 106.223 112.615 105.899 106.904 105.967L106.954 110.142C112.632 110.074 117.992 110.464 122.241 113.151L124.472 109.623ZM100.92 81.4972C101.326 80.8708 101.985 80.4936 102.707 80.4611L102.519 76.2906C100.426 76.3848 98.542 77.4895 97.4162 79.2284L100.92 81.4972ZM134.296 133.625C136.293 127.055 134.656 119.808 130.248 114.615L127.066 117.317C130.591 121.47 131.87 127.252 130.302 132.41L134.296 133.625ZM80.9831 105.491C79.7056 107.605 81.2089 110.337 83.7152 110.332L83.7065 106.158C84.4914 106.156 84.9431 107.009 84.5559 107.65L80.9831 105.491Z" fill="#1F1F1F" mask="url(#path-6-outside-1_251_10880)"/>
<mask id="path-8-inside-2_251_10880" fill="white">
<path fill-rule="evenodd" clip-rule="evenodd" d="M123.621 216.634C174.475 213.426 214.729 171.165 214.729 119.501C214.729 67.8375 174.475 25.5757 123.621 22.3684C125.677 22.2387 127.751 22.1729 129.841 22.1729C183.593 22.1729 227.169 65.7481 227.169 119.501C227.169 173.254 183.593 216.829 129.841 216.829C127.751 216.829 125.677 216.763 123.621 216.634Z"/>
</mask>
<path fill-rule="evenodd" clip-rule="evenodd" d="M123.621 216.634C174.475 213.426 214.729 171.165 214.729 119.501C214.729 67.8375 174.475 25.5757 123.621 22.3684C125.677 22.2387 127.751 22.1729 129.841 22.1729C183.593 22.1729 227.169 65.7481 227.169 119.501C227.169 173.254 183.593 216.829 129.841 216.829C127.751 216.829 125.677 216.763 123.621 216.634Z" fill="black"/>
<path d="M123.621 216.634L123.552 215.538L123.552 217.729L123.621 216.634ZM123.621 22.3684L123.552 21.2729V23.4639L123.621 22.3684ZM213.631 119.501C213.631 170.581 173.832 212.367 123.552 215.538L123.69 217.729C175.119 214.486 215.827 171.748 215.827 119.501H213.631ZM123.552 23.4639C173.832 26.635 213.631 68.4206 213.631 119.501H215.827C215.827 67.2544 175.119 24.5164 123.69 21.2729L123.552 23.4639ZM123.69 23.4639C125.723 23.3356 127.774 23.2705 129.841 23.2705V21.0752C127.728 21.0752 125.631 21.1417 123.552 21.2729L123.69 23.4639ZM129.841 23.2705C182.987 23.2705 226.071 66.3544 226.071 119.501H228.266C228.266 65.1419 184.2 21.0752 129.841 21.0752V23.2705ZM226.071 119.501C226.071 172.648 182.987 215.731 129.841 215.731V217.927C184.2 217.927 228.266 173.86 228.266 119.501H226.071ZM129.841 215.731C127.774 215.731 125.723 215.666 123.69 215.538L123.552 217.729C125.631 217.86 127.728 217.927 129.841 217.927V215.731Z" fill="black" mask="url(#path-8-inside-2_251_10880)"/>
<path d="M190.018 32.3062C189.966 32.0516 189.741 31.8691 189.481 31.8691C189.221 31.8691 188.997 32.0516 188.944 32.3062L185.102 50.7833L166.321 54.5654C166.065 54.617 165.881 54.8421 165.881 55.1035C165.881 55.3648 166.065 55.5899 166.321 55.6415L185.102 59.4236L188.944 77.9007C188.997 78.1553 189.221 78.3378 189.481 78.3378C189.741 78.3378 189.966 78.1553 190.018 77.9007L193.86 59.4236L212.641 55.6415C212.897 55.5899 213.081 55.3648 213.081 55.1035C213.081 54.8421 212.897 54.617 212.641 54.5654L193.86 50.7833L190.018 32.3062Z" fill="white" stroke="black" stroke-width="1.09769" stroke-linejoin="round"/>
<path d="M18.5371 171.887C18.4836 171.633 18.2596 171.451 18 171.451C17.7404 171.451 17.5164 171.633 17.4629 171.887L14.4799 186.06L-0.107093 188.962C-0.363892 189.013 -0.548843 189.238 -0.548843 189.5C-0.548843 189.762 -0.363892 189.987 -0.107093 190.038L14.4799 192.94L17.4629 207.113C17.5164 207.367 17.7404 207.549 18 207.549C18.2596 207.549 18.4836 207.367 18.5371 207.113L21.5201 192.94L36.1071 190.038C36.3639 189.987 36.5488 189.762 36.5488 189.5C36.5488 189.238 36.3639 189.013 36.1071 188.962L21.5201 186.06L18.5371 171.887Z" fill="white" stroke="black" stroke-width="1.09769" stroke-linejoin="round"/>
</g>
<defs>
<clipPath id="clip0_251_10880">
<rect width="249.437" height="239" fill="white"/>
</clipPath>
</defs>
</svg>
