<svg width="2596" height="1175" viewBox="0 0 2596 1175" fill="none" xmlns="http://www.w3.org/2000/svg">
<path d="M0 0V1174.68H2595.53V0H0ZM2586.89 318.204L2340.55 368.945V8.635H2586.89V318.204ZM254.973 798.509L8.635 849.25V327.031L254.973 377.766V798.515V798.509ZM1871.05 701.807V474.468L2331.92 379.545V796.736L1871.05 701.813V701.807ZM2331.92 805.55V1160.89L1871.05 903.438V710.621L2331.92 805.544V805.55ZM1870.76 70.8527H1755.67V8.635H1940.46L1870.76 70.8527ZM1755.67 991.098V848.88L1862.41 908.509V1086.39L1755.67 991.098ZM1858.5 1094.47H1755.67V1002.68L1858.5 1094.47ZM1755.67 838.985V686.859L1862.41 708.848V898.621L1755.67 838.991V838.985ZM1755.67 678.039V498.23L1862.41 476.241V700.022L1755.67 678.033V678.039ZM1755.67 489.409V333.918L1862.41 274.288V467.427L1755.67 489.415V489.409ZM1755.67 324.023V185.171L1862.41 89.8831V264.393L1755.67 324.023ZM1755.67 173.589V79.3951H1861.19L1755.67 173.589ZM983.093 417.297V518.909L848.497 491.188V342.108L983.093 417.297ZM848.497 332.219V192.885L983.093 313.034V407.408L848.497 332.219ZM983.093 527.729V648.533L848.497 676.254V500.002L983.093 527.723V527.729ZM983.093 657.353V755.6L848.497 830.788V685.08L983.093 657.359V657.353ZM983.093 765.488V863.228L848.497 983.377V840.677L983.093 765.488ZM988.287 870.171H1607.23L1747.02 994.958V1094.46H848.491V994.958L988.281 870.171H988.287ZM1335.71 616.223C1336.06 615.772 1336.4 615.321 1336.74 614.852L1444.64 675.13V713.456L1335.71 616.223ZM1437.09 718.299H1158.42L1265.64 622.591C1274.13 630.324 1285.37 635.08 1297.76 635.08C1310.14 635.08 1321.39 630.324 1329.88 622.591L1437.09 718.299ZM1341.06 607.372C1341.88 605.599 1342.62 603.789 1343.22 601.905L1444.64 622.795V665.235L1341.06 607.372ZM1345.07 593.468C1345.33 591.454 1345.51 589.422 1345.51 587.341C1345.51 585.796 1345.42 584.271 1345.28 582.758L1444.65 562.294V613.981L1345.08 593.474L1345.07 593.468ZM1343.65 574.271C1342.82 571.355 1341.72 568.563 1340.38 565.901L1444.64 507.661V553.474L1343.65 574.277V574.271ZM1339.98 556.235L1444.64 462.812V497.773L1339.98 556.235ZM1259.09 559.41C1258.71 559.928 1258.33 560.435 1257.97 560.966L1150.88 501.145V462.819L1259.09 559.41ZM1253.86 568.557C1253.07 570.404 1252.43 572.319 1251.86 574.271L1150.88 553.468V511.028L1253.86 568.551V568.557ZM1250.24 582.758C1250.1 584.265 1250.01 585.79 1250.01 587.341C1250.01 589.422 1250.18 591.46 1250.44 593.468L1150.88 613.974V562.288L1250.24 582.751V582.758ZM1252.29 601.911C1252.59 602.844 1252.94 603.752 1253.3 604.66L1150.88 661.875V622.801L1252.29 601.911ZM1257.16 612.393C1257.98 613.715 1258.86 614.994 1259.8 616.229L1150.88 713.456V671.763L1257.16 612.393ZM1446.76 726.946L1597.55 861.548H997.96L1148.75 726.946H1446.76ZM1453.27 721.177V679.966L1603.79 764.043V855.532L1453.27 721.177ZM1453.27 670.071V624.586L1603.79 655.587V754.154L1453.27 670.077V670.071ZM1453.27 615.766V560.521L1603.79 529.521V646.766L1453.27 615.766ZM1453.27 551.701V502.844L1603.79 418.767V520.7L1453.27 551.701ZM1453.27 492.955V455.11L1603.79 320.755V408.878L1453.27 492.955ZM1142.25 455.11V496.321L991.728 412.238V320.749L1142.25 455.11ZM1142.25 506.216V551.701L991.728 520.7V422.133L1142.25 506.216ZM1142.25 560.521V615.766L991.728 646.766V529.521L1142.25 560.521ZM1142.25 624.586V666.705L991.728 750.788V655.587L1142.25 624.586ZM1142.25 676.594V721.171L991.728 855.532V760.677L1142.25 676.594ZM1612.43 863.241V768.867L1747.03 844.056V983.389L1612.43 863.241ZM1612.43 758.972V657.359L1747.03 685.08V834.161L1612.43 758.972ZM1612.43 648.539V527.736L1747.03 500.015V676.266L1612.43 648.545V648.539ZM1612.43 518.915V413.936L1747.03 338.748V491.194L1612.43 518.915ZM1612.43 404.041V313.034L1747.03 192.885V328.853L1612.43 404.041ZM848.497 70.8527V8.635H1747.03V70.8527H848.497ZM733.11 1086.39V905.143L839.856 845.513V991.098L733.11 1086.39ZM839.856 1002.67V1094.47H737.014L839.856 1002.67ZM733.11 895.248V708.848L839.856 686.859V835.618L733.11 895.248ZM733.11 700.028V476.247L839.856 498.236V678.045L733.11 700.034V700.028ZM733.11 467.427V277.66L839.856 337.29V489.415L733.11 467.427ZM733.11 267.765V89.8892L839.856 185.177V327.395L733.11 267.765ZM734.327 79.4012H839.856V173.602L734.327 79.4012ZM724.753 70.8527L655.055 8.635H839.856V70.8527H724.753ZM724.469 82.1807V262.941L269.241 8.635H642.091L724.475 82.1746L724.469 82.1807ZM263.602 370.724V15.3861L724.469 272.836V465.648L263.602 370.724ZM724.469 474.468V701.807L263.602 796.73V379.538L724.469 474.462V474.468ZM263.602 805.55L724.469 710.627V900.072L263.602 1157.52V805.55ZM724.469 909.967V1094.09L643.863 1166.05H266.061L724.475 909.967H724.469ZM727.44 1103.02H839.849V1166.05H656.834L727.44 1103.02ZM848.491 1103.02H1747.02V1166.05H848.491V1103.02ZM1755.66 1103.02H1868.06L1938.67 1166.05H1755.65V1103.02H1755.66ZM1871.05 1094.1V913.34L2323.43 1166.05H1951.65L1871.05 1094.11V1094.1ZM2331.91 370.724L1871.05 465.648V269.464L2331.92 12.0136V370.724H2331.91ZM1871.05 259.569V82.1746L1953.43 8.635H2320.25L1871.05 259.569ZM2340.55 377.76L2586.89 327.018V849.244L2340.55 798.503V377.753V377.76ZM251.533 8.635L254.973 10.5559V368.939L8.635 318.204V8.635H251.533ZM8.635 858.071L254.973 807.335V1162.35L248.352 1166.05H8.635V858.077V858.071ZM2341.14 1166.05L2340.55 1165.72V807.329L2586.89 858.071V1166.05H2341.13H2341.14Z" fill="url(#paint0_linear_1_4312)" fill-opacity="0.02"/>
<defs>
<linearGradient id="paint0_linear_1_4312" x1="1297.77" y1="0" x2="1297.77" y2="1174.68" gradientUnits="userSpaceOnUse">
<stop stop-color="white"/>
<stop offset="1" stop-color="white" stop-opacity="0"/>
</linearGradient>
</defs>
</svg>
