<svg width="43" height="33" viewBox="0 0 43 33" fill="none" xmlns="http://www.w3.org/2000/svg">
<g id="discord_symbol.svg" clip-path="url(#clip0_251_4959)">
<g id="Clip path group">
<mask id="mask0_251_4959" style="mask-type:luminance" maskUnits="userSpaceOnUse" x="0" y="0" width="43" height="33">
<g id="clip0">
<path id="Vector" d="M42.1545 0.75H0.845459V32.75H42.1545V0.75Z" fill="white"/>
</g>
</mask>
<g mask="url(#mask0_251_4959)">
<g id="Group">
<path id="Vector_2" d="M35.8153 3.59957C33.1824 2.39148 30.3591 1.50142 27.407 0.99164C27.3533 0.981802 27.2996 1.00639 27.2719 1.05556C26.9088 1.70139 26.5065 2.54392 26.2249 3.20615C23.0498 2.7308 19.891 2.7308 16.781 3.20615C16.4993 2.5292 16.0825 1.70139 15.7177 1.05556C15.69 1.00803 15.6363 0.983443 15.5826 0.99164C12.6322 1.49979 9.80877 2.38985 7.17424 3.59957C7.15144 3.6094 7.13189 3.62581 7.11891 3.6471C1.76354 11.6479 0.296478 19.4521 1.01617 27.1595C1.01943 27.1972 1.04059 27.2333 1.0699 27.2562C4.60322 29.851 8.02585 31.4262 11.3849 32.4704C11.4387 32.4868 11.4956 32.4671 11.5299 32.4228C12.3244 31.3378 13.0327 30.1936 13.64 28.9904C13.6759 28.9199 13.6417 28.8363 13.5684 28.8085C12.4449 28.3823 11.3751 27.8627 10.3461 27.2726C10.2647 27.2251 10.2582 27.1086 10.3331 27.0529C10.5496 26.8906 10.7662 26.7218 10.973 26.5513C11.0104 26.5202 11.0625 26.5136 11.1065 26.5333C17.867 29.6199 25.1861 29.6199 31.8668 26.5333C31.9108 26.512 31.9629 26.5186 32.0019 26.5497C32.2088 26.7202 32.4253 26.8906 32.6435 27.0529C32.7184 27.1086 32.7135 27.2251 32.6321 27.2726C31.603 27.8741 30.5333 28.3823 29.4081 28.8068C29.3349 28.8347 29.3023 28.9199 29.3381 28.9904C29.9585 30.1919 30.6668 31.3361 31.4467 32.4212C31.4793 32.4671 31.5379 32.4868 31.5916 32.4704C34.967 31.4262 38.3896 29.851 41.9229 27.2562C41.9539 27.2333 41.9734 27.1988 41.9767 27.1611C42.838 18.2505 40.534 10.5103 35.869 3.64873C35.8576 3.62581 35.8382 3.6094 35.8153 3.59957ZM14.6496 22.4665C12.6142 22.4665 10.9372 20.5979 10.9372 18.303C10.9372 16.0081 12.5817 14.1395 14.6496 14.1395C16.7337 14.1395 18.3946 16.0245 18.362 18.303C18.362 20.5979 16.7175 22.4665 14.6496 22.4665ZM28.3758 22.4665C26.3405 22.4665 24.6634 20.5979 24.6634 18.303C24.6634 16.0081 26.3079 14.1395 28.3758 14.1395C30.46 14.1395 32.1208 16.0245 32.0883 18.303C32.0883 20.5979 30.46 22.4665 28.3758 22.4665Z" fill="white"/>
</g>
</g>
</g>
</g>
<defs>
<clipPath id="clip0_251_4959">
<rect width="41.3091" height="32" fill="white" transform="translate(0.845459 0.75)"/>
</clipPath>
</defs>
</svg>
