<svg width="1170" height="286" viewBox="0 0 1170 286" fill="none" xmlns="http://www.w3.org/2000/svg">
<g opacity="0.1">
<path fill-rule="evenodd" clip-rule="evenodd" d="M38.8978 144.92C58.0687 113.2 75.705 85.7178 82.7724 74.8018C84.4774 72.1682 87.2948 70.5329 90.406 70.393C111.831 69.4295 144.743 69.0926 176.416 76.0081C208.124 82.9314 238.211 97.037 254.512 124.649C255.989 127.151 257.26 129.698 258.342 132.277C271.538 163.736 261.487 196.113 239.512 223.351C217.531 250.596 183.831 272.382 150.565 282.352C140.69 285.311 130.45 287.397 120.074 288.162C122.15 286.717 124.329 284.985 126.559 283.031C131.91 278.345 137.747 272.214 143.445 265.21C147.723 260.134 151.449 254.975 154.679 249.9C161.943 238.883 168.183 226.848 171.703 215.277C176.162 200.618 173.371 184.542 164.815 172.001C162.577 168.446 159.854 165.189 156.622 162.285C155.128 160.943 153.528 159.679 151.821 158.497C150.291 157.328 148.662 156.19 146.926 155.092C133.5 146.6 117.111 145.676 101.849 145.859C84.1024 146.072 59.3478 146.328 39.7024 146.369C38.9746 146.37 38.5033 145.572 38.8978 144.92ZM94.1531 147.949C77.3852 148.139 56.6488 148.333 39.7065 148.369C37.402 148.373 35.9941 145.857 37.1862 143.885C56.3717 112.141 74.0202 84.6401 81.0935 73.7149C83.1436 70.5483 86.5477 68.5645 90.3162 68.395C133.26 66.4638 222.804 67.005 256.234 123.632C257.759 126.214 259.069 128.842 260.186 131.504C287.346 196.249 218.395 264.111 151.139 284.268C140.004 287.605 128.377 289.854 116.583 290.371C116.151 290.39 115.719 290.407 115.287 290.421C115.117 290.534 114.946 290.647 114.775 290.76L114.524 290.925H114.225C98.8179 290.925 82.7901 290.823 67.8093 290.728L67.8046 290.728L67.7952 290.728C57.4761 290.663 47.654 290.6 38.8742 290.577C35.2208 290.567 33.194 286.338 35.4758 283.485L77.5612 230.848H42.8227C38.7613 230.848 36.4275 226.228 38.838 222.959L93.8939 148.301L94.1531 147.949ZM150.653 160.121C138.426 151.672 120.255 147.484 95.2385 149.847L40.4477 224.146C39.0109 226.094 40.4019 228.848 42.8227 228.848H95.6507L134.372 228.453L134.421 228.453L134.47 228.457C138.499 228.813 146.876 228.931 155.123 224.642C159.568 221.932 163.88 218.017 168.031 212.613C168.878 211.285 169.684 209.85 170.438 208.299L170.592 208.352C171.62 194.945 169.251 182.804 163.121 173.066C162.17 171.677 161.145 170.333 160.049 169.041C157.432 165.958 154.342 162.946 150.653 160.121ZM152.995 248.821C160.974 236.285 165.878 224.277 168.56 215.411C164.836 220.65 160.459 224.129 156.051 226.418C155.365 226.832 154.676 227.221 153.982 227.583C148.34 230.533 141.854 230.848 135.753 230.848H95.6611L79.9941 231.008L37.0379 284.734C35.8019 286.279 36.9 288.571 38.8797 288.577C47.6772 288.601 57.5043 288.663 67.8245 288.728C82.7024 288.823 98.6049 288.924 113.924 288.925C125.187 281.47 134.42 272.818 141.928 263.906C145.736 259.224 149.489 254.138 152.995 248.821Z" fill="white" fill-opacity="0.2"/>
</g>
<mask id="path-2-outside-1_1_4318" maskUnits="userSpaceOnUse" x="318" y="58" width="837" height="302" fill="black">
<rect fill="white" x="318" y="58" width="837" height="302"/>
<path d="M387.746 297.709C375.105 297.709 363.656 294.458 353.399 287.957C343.214 281.384 335.124 271.741 329.128 259.027C323.205 246.242 320.244 230.567 320.244 212.003C320.244 192.933 323.314 177.078 329.453 164.437C335.593 151.724 343.756 142.225 353.941 135.941C364.198 129.584 375.43 126.406 387.638 126.406C396.956 126.406 404.721 127.995 410.933 131.173C417.218 134.279 422.274 138.18 426.103 142.875C430.003 147.498 432.965 152.049 434.987 156.527H436.396V73.0973H482.445V295H436.938V268.346H434.987C432.82 272.969 429.75 277.555 425.777 282.106C421.877 286.585 416.784 290.305 410.5 293.266C404.288 296.228 396.703 297.709 387.746 297.709ZM402.374 260.978C409.814 260.978 416.098 258.955 421.227 254.91C426.428 250.793 430.4 245.05 433.145 237.682C435.962 230.314 437.371 221.683 437.371 211.786C437.371 201.89 435.999 193.295 433.254 185.999C430.509 178.703 426.536 173.069 421.335 169.096C416.134 165.123 409.814 163.137 402.374 163.137C394.789 163.137 388.396 165.196 383.196 169.313C377.995 173.43 374.058 179.137 371.385 186.432C368.713 193.728 367.376 202.179 367.376 211.786C367.376 221.466 368.713 230.026 371.385 237.466C374.13 244.834 378.067 250.612 383.196 254.802C388.396 258.919 394.789 260.978 402.374 260.978ZM596.241 298.251C579.121 298.251 564.385 294.783 552.033 287.849C539.754 280.842 530.291 270.946 523.645 258.161C517 245.303 513.677 230.098 513.677 212.545C513.677 195.425 517 180.401 523.645 167.471C530.291 154.541 539.645 144.464 551.708 137.241C563.844 130.018 578.074 126.406 594.399 126.406C605.378 126.406 615.599 128.176 625.062 131.715C634.597 135.182 642.904 140.419 649.983 147.426C657.134 154.433 662.696 163.245 666.669 173.864C670.642 184.41 672.628 196.762 672.628 210.92V223.597H532.097V194.992H629.179C629.179 188.347 627.735 182.459 624.845 177.331C621.956 172.202 617.947 168.193 612.818 165.304C607.762 162.342 601.875 160.862 595.157 160.862C588.15 160.862 581.938 162.487 576.521 165.737C571.175 168.916 566.986 173.214 563.952 178.631C560.918 183.976 559.365 189.936 559.293 196.509V223.705C559.293 231.94 560.81 239.055 563.844 245.05C566.95 251.046 571.32 255.669 576.954 258.919C582.588 262.17 589.27 263.795 596.999 263.795C602.128 263.795 606.823 263.073 611.085 261.628C615.346 260.183 618.994 258.016 622.028 255.127C625.062 252.237 627.373 248.698 628.963 244.508L671.653 247.326C669.486 257.583 665.043 266.54 658.326 274.197C651.68 281.781 643.084 287.704 632.538 291.966C622.064 296.156 609.965 298.251 596.241 298.251ZM812.726 357.41V268.346H811.317C809.15 272.969 806.08 277.555 802.107 282.106C798.207 286.585 793.114 290.305 786.83 293.266C780.618 296.228 773.033 297.709 764.076 297.709C751.435 297.709 739.986 294.458 729.729 287.957C719.544 281.384 711.454 271.741 705.458 259.027C699.535 246.242 696.574 230.567 696.574 212.003C696.574 192.933 699.644 177.078 705.783 164.437C711.923 151.724 720.086 142.225 730.271 135.941C740.528 129.584 751.76 126.406 763.968 126.406C773.286 126.406 781.051 127.995 787.263 131.173C793.548 134.279 798.604 138.18 802.432 142.875C806.333 147.498 809.295 152.049 811.317 156.527H813.268V128.573H858.775V357.41H812.726ZM778.704 260.978C786.144 260.978 792.428 258.955 797.557 254.91C802.758 250.793 806.73 245.05 809.475 237.682C812.292 230.314 813.701 221.683 813.701 211.786C813.701 201.89 812.329 193.295 809.584 185.999C806.839 178.703 802.866 173.069 797.665 169.096C792.464 165.123 786.144 163.137 778.704 163.137C771.119 163.137 764.726 165.196 759.525 169.313C754.325 173.43 750.388 179.137 747.715 186.432C745.043 193.728 743.706 202.179 743.706 211.786C743.706 221.466 745.043 230.026 747.715 237.466C750.46 244.834 754.397 250.612 759.525 254.802C764.726 258.919 771.119 260.978 778.704 260.978ZM922.81 297.817C915.659 297.817 909.519 295.289 904.391 290.233C899.334 285.104 896.806 278.964 896.806 271.813C896.806 264.734 899.334 258.666 904.391 253.61C909.519 248.554 915.659 246.025 922.81 246.025C929.745 246.025 935.812 248.554 941.013 253.61C946.214 258.666 948.815 264.734 948.815 271.813C948.815 276.58 947.587 280.95 945.131 284.923C942.747 288.824 939.605 291.966 935.704 294.35C931.803 296.661 927.506 297.817 922.81 297.817ZM1076.21 128.573V163.245H973.491V128.573H1076.21ZM997.004 295V116.546C997.004 104.483 999.351 94.4785 1004.05 86.5328C1008.81 78.587 1015.31 72.6277 1023.55 68.6549C1031.78 64.682 1041.14 62.6956 1051.61 62.6956C1058.69 62.6956 1065.16 63.2373 1071.01 64.3208C1076.93 65.4043 1081.34 66.3795 1084.23 67.2463L1075.99 101.919C1074.19 101.341 1071.95 100.799 1069.27 100.293C1066.67 99.7877 1064 99.5349 1061.26 99.5349C1054.47 99.5349 1049.73 101.124 1047.06 104.302C1044.39 107.408 1043.05 111.779 1043.05 117.413V295H997.004ZM1104.41 295V128.573H1150.56V295H1104.41ZM1127.59 107.119C1120.73 107.119 1114.84 104.844 1109.93 100.293C1105.09 95.6704 1102.67 90.1445 1102.67 83.7156C1102.67 77.3591 1105.09 71.9054 1109.93 67.3547C1114.84 62.7317 1120.73 60.4202 1127.59 60.4202C1134.46 60.4202 1140.31 62.7317 1145.15 67.3547C1150.06 71.9054 1152.51 77.3591 1152.51 83.7156C1152.51 90.1445 1150.06 95.6704 1145.15 100.293C1140.31 104.844 1134.46 107.119 1127.59 107.119Z"/>
</mask>
<path d="M387.746 297.709C375.105 297.709 363.656 294.458 353.399 287.957C343.214 281.384 335.124 271.741 329.128 259.027C323.205 246.242 320.244 230.567 320.244 212.003C320.244 192.933 323.314 177.078 329.453 164.437C335.593 151.724 343.756 142.225 353.941 135.941C364.198 129.584 375.43 126.406 387.638 126.406C396.956 126.406 404.721 127.995 410.933 131.173C417.218 134.279 422.274 138.18 426.103 142.875C430.003 147.498 432.965 152.049 434.987 156.527H436.396V73.0973H482.445V295H436.938V268.346H434.987C432.82 272.969 429.75 277.555 425.777 282.106C421.877 286.585 416.784 290.305 410.5 293.266C404.288 296.228 396.703 297.709 387.746 297.709ZM402.374 260.978C409.814 260.978 416.098 258.955 421.227 254.91C426.428 250.793 430.4 245.05 433.145 237.682C435.962 230.314 437.371 221.683 437.371 211.786C437.371 201.89 435.999 193.295 433.254 185.999C430.509 178.703 426.536 173.069 421.335 169.096C416.134 165.123 409.814 163.137 402.374 163.137C394.789 163.137 388.396 165.196 383.196 169.313C377.995 173.43 374.058 179.137 371.385 186.432C368.713 193.728 367.376 202.179 367.376 211.786C367.376 221.466 368.713 230.026 371.385 237.466C374.13 244.834 378.067 250.612 383.196 254.802C388.396 258.919 394.789 260.978 402.374 260.978ZM596.241 298.251C579.121 298.251 564.385 294.783 552.033 287.849C539.754 280.842 530.291 270.946 523.645 258.161C517 245.303 513.677 230.098 513.677 212.545C513.677 195.425 517 180.401 523.645 167.471C530.291 154.541 539.645 144.464 551.708 137.241C563.844 130.018 578.074 126.406 594.399 126.406C605.378 126.406 615.599 128.176 625.062 131.715C634.597 135.182 642.904 140.419 649.983 147.426C657.134 154.433 662.696 163.245 666.669 173.864C670.642 184.41 672.628 196.762 672.628 210.92V223.597H532.097V194.992H629.179C629.179 188.347 627.735 182.459 624.845 177.331C621.956 172.202 617.947 168.193 612.818 165.304C607.762 162.342 601.875 160.862 595.157 160.862C588.15 160.862 581.938 162.487 576.521 165.737C571.175 168.916 566.986 173.214 563.952 178.631C560.918 183.976 559.365 189.936 559.293 196.509V223.705C559.293 231.94 560.81 239.055 563.844 245.05C566.95 251.046 571.32 255.669 576.954 258.919C582.588 262.17 589.27 263.795 596.999 263.795C602.128 263.795 606.823 263.073 611.085 261.628C615.346 260.183 618.994 258.016 622.028 255.127C625.062 252.237 627.373 248.698 628.963 244.508L671.653 247.326C669.486 257.583 665.043 266.54 658.326 274.197C651.68 281.781 643.084 287.704 632.538 291.966C622.064 296.156 609.965 298.251 596.241 298.251ZM812.726 357.41V268.346H811.317C809.15 272.969 806.08 277.555 802.107 282.106C798.207 286.585 793.114 290.305 786.83 293.266C780.618 296.228 773.033 297.709 764.076 297.709C751.435 297.709 739.986 294.458 729.729 287.957C719.544 281.384 711.454 271.741 705.458 259.027C699.535 246.242 696.574 230.567 696.574 212.003C696.574 192.933 699.644 177.078 705.783 164.437C711.923 151.724 720.086 142.225 730.271 135.941C740.528 129.584 751.76 126.406 763.968 126.406C773.286 126.406 781.051 127.995 787.263 131.173C793.548 134.279 798.604 138.18 802.432 142.875C806.333 147.498 809.295 152.049 811.317 156.527H813.268V128.573H858.775V357.41H812.726ZM778.704 260.978C786.144 260.978 792.428 258.955 797.557 254.91C802.758 250.793 806.73 245.05 809.475 237.682C812.292 230.314 813.701 221.683 813.701 211.786C813.701 201.89 812.329 193.295 809.584 185.999C806.839 178.703 802.866 173.069 797.665 169.096C792.464 165.123 786.144 163.137 778.704 163.137C771.119 163.137 764.726 165.196 759.525 169.313C754.325 173.43 750.388 179.137 747.715 186.432C745.043 193.728 743.706 202.179 743.706 211.786C743.706 221.466 745.043 230.026 747.715 237.466C750.46 244.834 754.397 250.612 759.525 254.802C764.726 258.919 771.119 260.978 778.704 260.978ZM922.81 297.817C915.659 297.817 909.519 295.289 904.391 290.233C899.334 285.104 896.806 278.964 896.806 271.813C896.806 264.734 899.334 258.666 904.391 253.61C909.519 248.554 915.659 246.025 922.81 246.025C929.745 246.025 935.812 248.554 941.013 253.61C946.214 258.666 948.815 264.734 948.815 271.813C948.815 276.58 947.587 280.95 945.131 284.923C942.747 288.824 939.605 291.966 935.704 294.35C931.803 296.661 927.506 297.817 922.81 297.817ZM1076.21 128.573V163.245H973.491V128.573H1076.21ZM997.004 295V116.546C997.004 104.483 999.351 94.4785 1004.05 86.5328C1008.81 78.587 1015.31 72.6277 1023.55 68.6549C1031.78 64.682 1041.14 62.6956 1051.61 62.6956C1058.69 62.6956 1065.16 63.2373 1071.01 64.3208C1076.93 65.4043 1081.34 66.3795 1084.23 67.2463L1075.99 101.919C1074.19 101.341 1071.95 100.799 1069.27 100.293C1066.67 99.7877 1064 99.5349 1061.26 99.5349C1054.47 99.5349 1049.73 101.124 1047.06 104.302C1044.39 107.408 1043.05 111.779 1043.05 117.413V295H997.004ZM1104.41 295V128.573H1150.56V295H1104.41ZM1127.59 107.119C1120.73 107.119 1114.84 104.844 1109.93 100.293C1105.09 95.6704 1102.67 90.1445 1102.67 83.7156C1102.67 77.3591 1105.09 71.9054 1109.93 67.3547C1114.84 62.7317 1120.73 60.4202 1127.59 60.4202C1134.46 60.4202 1140.31 62.7317 1145.15 67.3547C1150.06 71.9054 1152.51 77.3591 1152.51 83.7156C1152.51 90.1445 1150.06 95.6704 1145.15 100.293C1140.31 104.844 1134.46 107.119 1127.59 107.119Z" fill="white" fill-opacity="0.01"/>
<path d="M353.399 287.957L352.315 289.638L352.321 289.642L352.328 289.646L353.399 287.957ZM329.128 259.027L327.314 259.868L327.319 259.881L329.128 259.027ZM329.453 164.437L331.253 165.311L331.254 165.307L329.453 164.437ZM353.941 135.941L354.991 137.643L354.994 137.641L353.941 135.941ZM410.933 131.173L410.022 132.954L410.035 132.96L410.047 132.966L410.933 131.173ZM426.103 142.875L424.553 144.139L424.563 144.152L424.574 144.165L426.103 142.875ZM434.987 156.527L433.165 157.351L433.696 158.527H434.987V156.527ZM436.396 156.527V158.527H438.396V156.527H436.396ZM436.396 73.0973V71.0973H434.396V73.0973H436.396ZM482.445 73.0973H484.445V71.0973H482.445V73.0973ZM482.445 295V297H484.445V295H482.445ZM436.938 295H434.938V297H436.938V295ZM436.938 268.346H438.938V266.346H436.938V268.346ZM434.987 268.346V266.346H433.716L433.176 267.497L434.987 268.346ZM425.777 282.106L424.271 280.791L424.269 280.793L425.777 282.106ZM410.5 293.266L409.647 291.457L409.639 291.461L410.5 293.266ZM421.227 254.91L422.465 256.48L422.468 256.478L421.227 254.91ZM433.145 237.682L431.277 236.968L431.274 236.976L431.271 236.984L433.145 237.682ZM433.254 185.999L435.126 185.295L435.126 185.295L433.254 185.999ZM383.196 169.313L381.954 167.745L381.954 167.745L383.196 169.313ZM371.385 237.466L369.503 238.142L369.507 238.153L369.511 238.164L371.385 237.466ZM383.196 254.802L381.93 256.351L381.942 256.36L381.954 256.37L383.196 254.802ZM387.746 295.709C375.468 295.709 364.393 292.557 354.47 286.268L352.328 289.646C362.919 296.359 374.743 299.709 387.746 299.709V295.709ZM354.484 286.277C344.66 279.937 336.799 270.604 330.937 258.174L327.319 259.881C333.448 272.877 341.768 282.831 352.315 289.638L354.484 286.277ZM330.943 258.187C325.174 245.734 322.244 230.365 322.244 212.003H318.244C318.244 230.77 321.236 246.75 327.314 259.868L330.943 258.187ZM322.244 212.003C322.244 193.134 325.283 177.6 331.253 165.311L327.654 163.563C321.344 176.556 318.244 192.733 318.244 212.003H322.244ZM331.254 165.307C337.259 152.874 345.185 143.693 354.991 137.643L352.891 134.239C342.327 140.757 333.928 150.573 327.653 163.567L331.254 165.307ZM354.994 137.641C364.931 131.483 375.798 128.406 387.638 128.406V124.406C375.063 124.406 363.465 127.686 352.887 134.241L354.994 137.641ZM387.638 128.406C396.741 128.406 404.171 129.96 410.022 132.954L411.844 129.393C405.272 126.03 397.171 124.406 387.638 124.406V128.406ZM410.047 132.966C416.115 135.965 420.931 139.698 424.553 144.139L427.653 141.611C423.617 136.662 418.32 132.593 411.82 129.38L410.047 132.966ZM424.574 144.165C428.382 148.678 431.233 153.074 433.165 157.351L436.81 155.704C434.696 151.024 431.625 146.319 427.631 141.586L424.574 144.165ZM434.987 158.527H436.396V154.527H434.987V158.527ZM438.396 156.527V73.0973H434.396V156.527H438.396ZM436.396 75.0973H482.445V71.0973H436.396V75.0973ZM480.445 73.0973V295H484.445V73.0973H480.445ZM482.445 293H436.938V297H482.445V293ZM438.938 295V268.346H434.938V295H438.938ZM436.938 266.346H434.987V270.346H436.938V266.346ZM433.176 267.497C431.101 271.923 428.143 276.356 424.271 280.791L427.284 283.422C431.358 278.755 434.539 274.014 436.798 269.195L433.176 267.497ZM424.269 280.793C420.579 285.03 415.723 288.594 409.647 291.457L411.353 295.076C417.845 292.016 423.175 288.14 427.286 283.42L424.269 280.793ZM409.639 291.461C403.764 294.262 396.492 295.709 387.746 295.709V299.709C396.915 299.709 404.811 298.194 411.361 295.072L409.639 291.461ZM402.374 262.978C410.197 262.978 416.936 260.842 422.465 256.48L419.988 253.34C415.261 257.068 409.43 258.978 402.374 258.978V262.978ZM422.468 256.478C428.005 252.095 432.171 246.027 435.02 238.381L431.271 236.984C428.63 244.074 424.851 249.49 419.985 253.342L422.468 256.478ZM435.013 238.397C437.937 230.751 439.371 221.867 439.371 211.786H435.371C435.371 221.498 433.988 229.878 431.277 236.968L435.013 238.397ZM439.371 211.786C439.371 201.712 437.975 192.867 435.126 185.295L431.382 186.703C434.023 193.722 435.371 202.069 435.371 211.786H439.371ZM435.126 185.295C432.274 177.716 428.101 171.748 422.549 167.507L420.121 170.686C424.971 174.391 428.743 179.691 431.382 186.703L435.126 185.295ZM422.549 167.507C416.953 163.232 410.19 161.137 402.374 161.137V165.137C409.438 165.137 415.316 167.015 420.121 170.686L422.549 167.507ZM402.374 161.137C394.406 161.137 387.558 163.308 381.954 167.745L384.437 170.881C389.235 167.083 395.172 165.137 402.374 165.137V161.137ZM381.954 167.745C376.418 172.128 372.285 178.162 369.507 185.744L373.263 187.12C375.831 180.111 379.572 174.733 384.437 170.881L381.954 167.745ZM369.507 185.744C366.737 193.306 365.376 201.998 365.376 211.786H369.376C369.376 202.361 370.688 194.15 373.263 187.12L369.507 185.744ZM365.376 211.786C365.376 221.646 366.737 230.442 369.503 238.142L373.268 236.79C370.688 229.609 369.376 221.285 369.376 211.786H365.376ZM369.511 238.164C372.357 245.802 376.479 251.898 381.93 256.351L384.461 253.253C379.655 249.327 375.904 243.865 373.259 236.767L369.511 238.164ZM381.954 256.37C387.558 260.806 394.406 262.978 402.374 262.978V258.978C395.172 258.978 389.235 257.032 384.437 253.234L381.954 256.37ZM552.033 287.849L551.042 289.586L551.054 289.593L552.033 287.849ZM523.645 258.161L521.869 259.079L521.871 259.083L523.645 258.161ZM523.645 167.471L521.867 166.557L521.867 166.557L523.645 167.471ZM551.708 137.241L550.685 135.522L550.681 135.525L551.708 137.241ZM625.062 131.715L624.361 133.588L624.37 133.592L624.378 133.595L625.062 131.715ZM649.983 147.426L648.576 148.847L648.583 148.855L649.983 147.426ZM666.669 173.864L664.796 174.564L664.797 174.569L666.669 173.864ZM672.628 223.597V225.597H674.628V223.597H672.628ZM532.097 223.597H530.097V225.597H532.097V223.597ZM532.097 194.992V192.992H530.097V194.992H532.097ZM629.179 194.992V196.992H631.179V194.992H629.179ZM624.845 177.331L623.103 178.313L623.103 178.313L624.845 177.331ZM612.818 165.304L611.807 167.03L611.822 167.038L611.837 167.046L612.818 165.304ZM576.521 165.737L577.543 167.456L577.55 167.452L576.521 165.737ZM563.952 178.631L565.691 179.618L565.697 179.608L563.952 178.631ZM559.293 196.509L557.293 196.487L557.293 196.498V196.509H559.293ZM563.844 245.05L562.059 245.953L562.063 245.962L562.068 245.97L563.844 245.05ZM611.085 261.628L610.443 259.734L610.443 259.734L611.085 261.628ZM622.028 255.127L620.649 253.679L620.649 253.679L622.028 255.127ZM628.963 244.508L629.094 242.513L627.617 242.415L627.093 243.799L628.963 244.508ZM671.653 247.326L673.61 247.739L674.087 245.482L671.785 245.33L671.653 247.326ZM658.326 274.197L656.822 272.878L656.821 272.879L658.326 274.197ZM632.538 291.966L633.281 293.823L633.288 293.82L632.538 291.966ZM596.241 296.251C579.393 296.251 565.009 292.84 553.012 286.105L551.054 289.593C563.762 296.727 578.85 300.251 596.241 300.251V296.251ZM553.025 286.112C541.086 279.299 531.892 269.689 525.42 257.238L521.871 259.083C528.69 272.203 538.422 282.385 551.042 289.586L553.025 286.112ZM525.422 257.242C518.951 244.723 515.677 229.845 515.677 212.545H511.677C511.677 230.35 515.048 245.883 521.869 259.079L525.422 257.242ZM515.677 212.545C515.677 195.687 518.948 180.986 525.424 168.385L521.867 166.557C515.052 179.816 511.677 195.164 511.677 212.545H515.677ZM525.424 168.385C531.905 155.776 541.004 145.982 552.736 138.957L550.681 135.525C538.286 142.947 528.677 153.307 521.867 166.557L525.424 168.385ZM552.731 138.96C564.512 131.948 578.377 128.406 594.399 128.406V124.406C577.771 124.406 563.176 128.088 550.685 135.522L552.731 138.96ZM594.399 128.406C605.16 128.406 615.141 130.14 624.361 133.588L625.763 129.842C616.057 126.212 605.597 124.406 594.399 124.406V128.406ZM624.378 133.595C633.647 136.965 641.706 142.048 648.576 148.847L651.39 146.005C644.102 138.791 635.547 133.4 625.745 129.836L624.378 133.595ZM648.583 148.855C655.499 155.631 660.912 164.184 664.796 174.564L668.542 173.163C664.48 162.306 658.769 153.235 651.382 145.997L648.583 148.855ZM664.797 174.569C668.666 184.84 670.628 196.943 670.628 210.92H674.628C674.628 196.58 672.617 183.98 668.54 173.159L664.797 174.569ZM670.628 210.92V223.597H674.628V210.92H670.628ZM672.628 221.597H532.097V225.597H672.628V221.597ZM534.097 223.597V194.992H530.097V223.597H534.097ZM532.097 196.992H629.179V192.992H532.097V196.992ZM631.179 194.992C631.179 188.048 629.667 181.814 626.588 176.349L623.103 178.313C625.802 183.105 627.179 188.645 627.179 194.992H631.179ZM626.588 176.349C623.519 170.902 619.247 166.63 613.8 163.561L611.837 167.046C616.647 169.756 620.393 173.502 623.103 178.313L626.588 176.349ZM613.829 163.578C608.424 160.412 602.177 158.862 595.157 158.862V162.862C601.572 162.862 607.1 164.273 611.807 167.03L613.829 163.578ZM595.157 158.862C587.829 158.862 581.253 160.565 575.492 164.022L577.55 167.452C582.623 164.408 588.472 162.862 595.157 162.862V158.862ZM575.499 164.018C569.852 167.376 565.413 171.929 562.207 177.654L565.697 179.608C568.559 174.498 572.499 170.455 577.543 167.456L575.499 164.018ZM562.213 177.644C559 183.304 557.369 189.599 557.293 196.487L561.293 196.531C561.362 190.272 562.836 184.649 565.691 179.618L562.213 177.644ZM557.293 196.509V223.705H561.293V196.509H557.293ZM557.293 223.705C557.293 232.184 558.855 239.622 562.059 245.953L565.628 244.147C562.764 238.488 561.293 231.696 561.293 223.705H557.293ZM562.068 245.97C565.343 252.291 569.976 257.202 575.955 260.652L577.954 257.187C572.663 254.135 568.557 249.8 565.62 244.13L562.068 245.97ZM575.955 260.652C581.946 264.108 588.985 265.795 596.999 265.795V261.795C589.555 261.795 583.231 260.232 577.954 257.187L575.955 260.652ZM596.999 265.795C602.316 265.795 607.232 265.046 611.727 263.522L610.443 259.734C606.414 261.099 601.939 261.795 596.999 261.795V265.795ZM611.727 263.522C616.243 261.991 620.148 259.679 623.407 256.575L620.649 253.679C617.841 256.353 614.45 258.375 610.443 259.734L611.727 263.522ZM623.407 256.575C626.673 253.465 629.145 249.667 630.833 245.218L627.093 243.799C625.602 247.729 623.451 251.01 620.649 253.679L623.407 256.575ZM628.831 246.504L671.521 249.321L671.785 245.33L629.094 242.513L628.831 246.504ZM669.696 246.912C667.598 256.844 663.307 265.487 656.822 272.878L659.829 275.516C666.78 267.593 671.374 258.322 673.61 247.739L669.696 246.912ZM656.821 272.879C650.407 280.199 642.082 285.952 631.789 290.112L633.288 293.82C644.086 289.457 652.953 283.363 659.83 275.515L656.821 272.879ZM631.795 290.109C621.603 294.186 609.764 296.251 596.241 296.251V300.251C610.166 300.251 622.526 298.125 633.281 293.823L631.795 290.109ZM812.726 357.41H810.726V359.41H812.726V357.41ZM812.726 268.346H814.726V266.346H812.726V268.346ZM811.317 268.346V266.346H810.046L809.506 267.497L811.317 268.346ZM802.107 282.106L800.601 280.791L800.599 280.793L802.107 282.106ZM786.83 293.266L785.977 291.457L785.969 291.461L786.83 293.266ZM729.729 287.957L728.644 289.638L728.651 289.642L728.658 289.646L729.729 287.957ZM705.458 259.027L703.644 259.868L703.649 259.881L705.458 259.027ZM705.783 164.437L707.582 165.311L707.584 165.307L705.783 164.437ZM730.271 135.941L731.321 137.643L731.324 137.641L730.271 135.941ZM787.263 131.173L786.352 132.954L786.365 132.96L786.377 132.966L787.263 131.173ZM802.432 142.875L800.882 144.139L800.893 144.152L800.904 144.165L802.432 142.875ZM811.317 156.527L809.494 157.351L810.026 158.527H811.317V156.527ZM813.268 156.527V158.527H815.268V156.527H813.268ZM813.268 128.573V126.573H811.268V128.573H813.268ZM858.775 128.573H860.775V126.573H858.775V128.573ZM858.775 357.41V359.41H860.775V357.41H858.775ZM797.557 254.91L798.795 256.48L798.798 256.478L797.557 254.91ZM809.475 237.682L807.607 236.968L807.604 236.976L807.601 236.984L809.475 237.682ZM809.584 185.999L811.456 185.295L811.456 185.295L809.584 185.999ZM759.525 169.313L758.284 167.745L758.284 167.745L759.525 169.313ZM747.715 237.466L745.833 238.142L745.837 238.153L745.841 238.164L747.715 237.466ZM759.525 254.802L758.26 256.351L758.272 256.36L758.284 256.37L759.525 254.802ZM814.726 357.41V268.346H810.726V357.41H814.726ZM812.726 266.346H811.317V270.346H812.726V266.346ZM809.506 267.497C807.431 271.923 804.473 276.356 800.601 280.791L803.614 283.422C807.688 278.755 810.869 274.014 813.128 269.195L809.506 267.497ZM800.599 280.793C796.909 285.03 792.053 288.594 785.977 291.457L787.683 295.076C794.175 292.016 799.505 288.14 803.616 283.42L800.599 280.793ZM785.969 291.461C780.094 294.262 772.822 295.709 764.076 295.709V299.709C773.245 299.709 781.141 298.194 787.691 295.072L785.969 291.461ZM764.076 295.709C751.798 295.709 740.723 292.557 730.8 286.268L728.658 289.646C739.249 296.359 751.072 299.709 764.076 299.709V295.709ZM730.814 286.277C720.99 279.937 713.129 270.604 707.267 258.174L703.649 259.881C709.778 272.877 718.098 282.831 728.644 289.638L730.814 286.277ZM707.273 258.187C701.504 245.734 698.574 230.365 698.574 212.003H694.574C694.574 230.77 697.566 246.75 703.644 259.868L707.273 258.187ZM698.574 212.003C698.574 193.134 701.613 177.6 707.582 165.311L703.984 163.563C697.674 176.556 694.574 192.733 694.574 212.003H698.574ZM707.584 165.307C713.589 152.874 721.515 143.693 731.321 137.643L729.221 134.239C718.657 140.757 710.258 150.573 703.982 163.567L707.584 165.307ZM731.324 137.641C741.261 131.483 752.128 128.406 763.968 128.406V124.406C751.393 124.406 739.795 127.686 729.217 134.241L731.324 137.641ZM763.968 128.406C773.071 128.406 780.501 129.96 786.352 132.954L788.174 129.393C781.602 126.03 773.501 124.406 763.968 124.406V128.406ZM786.377 132.966C792.445 135.965 797.261 139.698 800.882 144.139L803.982 141.611C799.947 136.662 794.65 132.593 788.15 129.38L786.377 132.966ZM800.904 144.165C804.712 148.678 807.563 153.074 809.494 157.351L813.14 155.704C811.026 151.024 807.954 146.319 803.961 141.586L800.904 144.165ZM811.317 158.527H813.268V154.527H811.317V158.527ZM815.268 156.527V128.573H811.268V156.527H815.268ZM813.268 130.573H858.775V126.573H813.268V130.573ZM856.775 128.573V357.41H860.775V128.573H856.775ZM858.775 355.41H812.726V359.41H858.775V355.41ZM778.704 262.978C786.527 262.978 793.265 260.842 798.795 256.48L796.318 253.34C791.591 257.068 785.76 258.978 778.704 258.978V262.978ZM798.798 256.478C804.335 252.095 808.501 246.027 811.349 238.381L807.601 236.984C804.96 244.074 801.181 249.49 796.315 253.342L798.798 256.478ZM811.343 238.397C814.267 230.751 815.701 221.867 815.701 211.786H811.701C811.701 221.498 810.318 229.878 807.607 236.968L811.343 238.397ZM815.701 211.786C815.701 201.712 814.305 192.867 811.456 185.295L807.712 186.703C810.353 193.722 811.701 202.069 811.701 211.786H815.701ZM811.456 185.295C808.604 177.716 804.431 171.748 798.879 167.507L796.451 170.686C801.301 174.391 805.073 179.691 807.712 186.703L811.456 185.295ZM798.879 167.507C793.283 163.232 786.52 161.137 778.704 161.137V165.137C785.768 165.137 791.646 167.015 796.451 170.686L798.879 167.507ZM778.704 161.137C770.736 161.137 763.888 163.308 758.284 167.745L760.767 170.881C765.565 167.083 771.502 165.137 778.704 165.137V161.137ZM758.284 167.745C752.747 172.128 748.615 178.162 745.837 185.744L749.593 187.12C752.161 180.111 755.902 174.733 760.767 170.881L758.284 167.745ZM745.837 185.744C743.067 193.306 741.706 201.998 741.706 211.786H745.706C745.706 202.361 747.018 194.15 749.593 187.12L745.837 185.744ZM741.706 211.786C741.706 221.646 743.067 230.442 745.833 238.142L749.597 236.79C747.018 229.609 745.706 221.285 745.706 211.786H741.706ZM745.841 238.164C748.687 245.802 752.809 251.898 758.26 256.351L760.791 253.253C755.985 249.327 752.234 243.865 749.589 236.767L745.841 238.164ZM758.284 256.37C763.888 260.806 770.736 262.978 778.704 262.978V258.978C771.502 258.978 765.565 257.032 760.767 253.234L758.284 256.37ZM904.391 290.233L902.966 291.637L902.976 291.647L902.987 291.657L904.391 290.233ZM904.391 253.61L902.987 252.186L902.982 252.191L902.976 252.196L904.391 253.61ZM941.013 253.61L939.619 255.044L939.619 255.044L941.013 253.61ZM945.131 284.923L943.429 283.872L943.424 283.88L945.131 284.923ZM935.704 294.35L936.724 296.07L936.735 296.064L936.747 296.056L935.704 294.35ZM922.81 295.817C916.189 295.817 910.552 293.499 905.795 288.808L902.987 291.657C908.486 297.079 915.129 299.817 922.81 299.817V295.817ZM905.815 288.828C901.125 284.071 898.806 278.434 898.806 271.813H894.806C894.806 279.494 897.544 286.137 902.966 291.637L905.815 288.828ZM898.806 271.813C898.806 265.27 901.119 259.71 905.805 255.024L902.976 252.196C897.549 257.623 894.806 264.198 894.806 271.813H898.806ZM905.795 255.034C910.552 250.344 916.189 248.025 922.81 248.025V244.025C915.129 244.025 908.486 246.763 902.987 252.186L905.795 255.034ZM922.81 248.025C929.198 248.025 934.773 250.332 939.619 255.044L942.407 252.176C936.852 246.775 930.291 244.025 922.81 244.025V248.025ZM939.619 255.044C944.443 259.734 946.815 265.289 946.815 271.813H950.815C950.815 264.179 947.985 257.598 942.407 252.176L939.619 255.044ZM946.815 271.813C946.815 276.217 945.686 280.222 943.429 283.872L946.832 285.975C949.487 281.679 950.815 276.944 950.815 271.813H946.815ZM943.424 283.88C941.206 287.51 938.291 290.425 934.661 292.643L936.747 296.056C940.918 293.507 944.288 290.138 946.837 285.966L943.424 283.88ZM934.685 292.629C931.104 294.751 927.16 295.817 922.81 295.817V299.817C927.851 299.817 932.503 298.572 936.724 296.07L934.685 292.629ZM1076.21 128.573H1078.21V126.573H1076.21V128.573ZM1076.21 163.245V165.245H1078.21V163.245H1076.21ZM973.491 163.245H971.491V165.245H973.491V163.245ZM973.491 128.573V126.573H971.491V128.573H973.491ZM997.004 295H995.004V297H997.004V295ZM1004.05 86.5328L1002.33 85.5037L1002.32 85.5153L1004.05 86.5328ZM1023.55 68.6549L1022.68 66.8535L1022.68 66.8535L1023.55 68.6549ZM1071.01 64.3208L1070.64 66.2874L1070.65 66.2882L1071.01 64.3208ZM1084.23 67.2463L1086.17 67.7084L1086.61 65.8728L1084.8 65.3307L1084.23 67.2463ZM1075.99 101.919L1075.38 103.823L1077.44 104.482L1077.94 102.381L1075.99 101.919ZM1069.27 100.293L1068.89 102.257L1068.9 102.258L1069.27 100.293ZM1047.06 104.302L1048.58 105.607L1048.59 105.598L1048.59 105.59L1047.06 104.302ZM1043.05 295V297H1045.05V295H1043.05ZM1074.21 128.573V163.245H1078.21V128.573H1074.21ZM1076.21 161.245H973.491V165.245H1076.21V161.245ZM975.491 163.245V128.573H971.491V163.245H975.491ZM973.491 130.573H1076.21V126.573H973.491V130.573ZM999.004 295V116.546H995.004V295H999.004ZM999.004 116.546C999.004 104.734 1001.3 95.107 1005.77 87.5502L1002.32 85.5153C997.4 93.85 995.004 104.232 995.004 116.546H999.004ZM1005.76 87.5618C1010.33 79.9456 1016.54 74.2572 1024.42 70.4562L1022.68 66.8535C1014.09 70.9983 1007.3 77.2284 1002.33 85.5038L1005.76 87.5618ZM1024.42 70.4562C1032.35 66.6319 1041.4 64.6956 1051.61 64.6956V60.6956C1040.88 60.6956 1031.22 62.7321 1022.68 66.8535L1024.42 70.4562ZM1051.61 64.6956C1058.59 64.6956 1064.93 65.2298 1070.64 66.2874L1071.37 62.3543C1065.38 61.2448 1058.79 60.6956 1051.61 60.6956V64.6956ZM1070.65 66.2882C1076.55 67.3687 1080.87 68.3281 1083.65 69.162L1084.8 65.3307C1081.8 64.4309 1077.31 63.4399 1071.37 62.3535L1070.65 66.2882ZM1082.28 66.7842L1074.05 101.456L1077.94 102.381L1086.17 67.7084L1082.28 66.7842ZM1076.6 100.014C1074.69 99.4028 1072.37 98.8431 1069.65 98.3282L1068.9 102.258C1071.53 102.755 1073.68 103.279 1075.38 103.823L1076.6 100.014ZM1069.66 98.3301C1066.92 97.7991 1064.12 97.5349 1061.26 97.5349V101.535C1063.88 101.535 1066.42 101.776 1068.89 102.257L1069.66 98.3301ZM1061.26 97.5349C1054.24 97.5349 1048.77 99.164 1045.53 103.015L1048.59 105.59C1050.7 103.084 1054.69 101.535 1061.26 101.535V97.5349ZM1045.55 102.998C1042.46 106.583 1041.05 111.479 1041.05 117.413H1045.05C1045.05 112.078 1046.32 108.234 1048.58 105.607L1045.55 102.998ZM1041.05 117.413V295H1045.05V117.413H1041.05ZM1043.05 293H997.004V297H1043.05V293ZM1104.41 295H1102.41V297H1104.41V295ZM1104.41 128.573V126.573H1102.41V128.573H1104.41ZM1150.56 128.573H1152.56V126.573H1150.56V128.573ZM1150.56 295V297H1152.56V295H1150.56ZM1109.93 100.293L1108.55 101.74L1108.56 101.75L1108.57 101.76L1109.93 100.293ZM1109.93 67.3547L1111.3 68.8117L1111.3 68.8111L1109.93 67.3547ZM1145.15 67.3547L1143.77 68.8009L1143.78 68.8114L1143.79 68.8218L1145.15 67.3547ZM1145.15 100.293L1146.52 101.75L1146.52 101.75L1145.15 100.293ZM1106.41 295V128.573H1102.41V295H1106.41ZM1104.41 130.573H1150.56V126.573H1104.41V130.573ZM1148.56 128.573V295H1152.56V128.573H1148.56ZM1150.56 293H1104.41V297H1150.56V293ZM1127.59 105.119C1121.22 105.119 1115.82 103.025 1111.29 98.8262L1108.57 101.76C1113.86 106.663 1120.24 109.119 1127.59 109.119V105.119ZM1111.31 98.8471C1106.85 94.5841 1104.67 89.5734 1104.67 83.7156H1100.67C1100.67 90.7155 1103.33 96.7566 1108.55 101.74L1111.31 98.8471ZM1104.67 83.7156C1104.67 77.9382 1106.84 73.0036 1111.3 68.8117L1108.56 65.8976C1103.34 70.8072 1100.67 76.7799 1100.67 83.7156H1104.67ZM1111.3 68.8111C1115.84 64.5439 1121.23 62.4202 1127.59 62.4202V58.4202C1120.23 58.4202 1113.85 60.9194 1108.56 65.8983L1111.3 68.8111ZM1127.59 62.4202C1133.96 62.4202 1139.31 64.5432 1143.77 68.8009L1146.53 65.9084C1141.31 60.9201 1134.96 58.4202 1127.59 58.4202V62.4202ZM1143.79 68.8218C1148.32 73.0168 1150.51 77.9486 1150.51 83.7156H1154.51C1154.51 76.7695 1151.8 70.794 1146.51 65.8875L1143.79 68.8218ZM1150.51 83.7156C1150.51 89.5632 1148.31 94.571 1143.78 98.8369L1146.52 101.75C1151.81 96.7697 1154.51 90.7257 1154.51 83.7156H1150.51ZM1143.78 98.8363C1139.32 103.026 1133.97 105.119 1127.59 105.119V109.119C1134.95 109.119 1141.29 106.662 1146.52 101.75L1143.78 98.8363Z" fill="url(#paint0_diamond_1_4318)" fill-opacity="0.2" mask="url(#path-2-outside-1_1_4318)"/>
<defs>
<radialGradient id="paint0_diamond_1_4318" cx="0" cy="0" r="1" gradientUnits="userSpaceOnUse" gradientTransform="translate(739 184.5) rotate(90) scale(307 717.165)">
<stop stop-color="white"/>
<stop offset="1" stop-color="white" stop-opacity="0"/>
</radialGradient>
</defs>
</svg>
