<svg width="833" height="226" viewBox="0 0 833 226" fill="none" xmlns="http://www.w3.org/2000/svg">
<mask id="path-1-outside-1_251_4972" maskUnits="userSpaceOnUse" x="-2" y="-2" width="837" height="302" fill="black">
<rect fill="white" x="-2" y="-2" width="837" height="302"/>
<path d="M67.7463 237.709C55.1054 237.709 43.6563 234.458 33.3991 227.957C23.2141 221.384 15.1239 211.741 9.12844 199.027C3.20525 186.242 0.243658 170.567 0.243658 152.003C0.243658 132.933 3.3136 117.078 9.45349 104.437C15.5934 91.7239 23.7558 82.2252 33.9408 75.9408C44.198 69.5842 55.4304 66.4059 67.6379 66.4059C76.9561 66.4059 84.7213 67.9951 90.9334 71.1734C97.2178 74.2794 102.274 78.1801 106.103 82.8753C110.003 87.4982 112.965 92.049 114.987 96.5275H116.396V13.0973H162.445V235H116.938V208.346H114.987C112.82 212.969 109.75 217.555 105.777 222.106C101.877 226.585 96.7844 230.305 90.5 233.266C84.2879 236.228 76.7033 237.709 67.7463 237.709ZM82.3737 200.978C89.8138 200.978 96.0981 198.955 101.227 194.91C106.428 190.793 110.4 185.05 113.145 177.682C115.962 170.314 117.371 161.683 117.371 151.786C117.371 141.89 115.999 133.295 113.254 125.999C110.509 118.703 106.536 113.069 101.335 109.096C96.1342 105.123 89.8138 103.137 82.3737 103.137C74.7891 103.137 68.3964 105.196 63.1956 109.313C57.9947 113.43 54.058 119.137 51.3853 126.432C48.7127 133.728 47.3763 142.179 47.3763 151.786C47.3763 161.466 48.7127 170.026 51.3853 177.466C54.1302 184.834 58.0669 190.612 63.1956 194.802C68.3964 198.919 74.7891 200.978 82.3737 200.978ZM276.241 238.251C259.121 238.251 244.385 234.783 232.033 227.849C219.754 220.842 210.291 210.946 203.645 198.161C197 185.303 193.677 170.098 193.677 152.545C193.677 135.425 197 120.401 203.645 107.471C210.291 94.5411 219.645 84.4644 231.708 77.241C243.844 70.0176 258.074 66.4059 274.399 66.4059C285.378 66.4059 295.599 68.1757 305.062 71.7151C314.597 75.1823 322.904 80.4193 329.983 87.426C337.134 94.4327 342.696 103.245 346.669 113.864C350.642 124.41 352.628 136.762 352.628 150.92V163.597H212.097V134.992H309.179C309.179 128.347 307.735 122.459 304.845 117.331C301.956 112.202 297.947 108.193 292.818 105.304C287.762 102.342 281.875 100.862 275.157 100.862C268.15 100.862 261.938 102.487 256.521 105.737C251.175 108.916 246.986 113.214 243.952 118.631C240.918 123.976 239.365 129.936 239.293 136.509V163.705C239.293 171.94 240.81 179.055 243.844 185.05C246.95 191.046 251.32 195.669 256.954 198.919C262.588 202.17 269.27 203.795 276.999 203.795C282.128 203.795 286.823 203.073 291.085 201.628C295.346 200.183 298.994 198.016 302.028 195.127C305.062 192.237 307.373 188.698 308.963 184.508L351.653 187.326C349.486 197.583 345.043 206.54 338.326 214.197C331.68 221.781 323.084 227.704 312.538 231.966C302.064 236.156 289.965 238.251 276.241 238.251ZM492.726 297.41V208.346H491.317C489.15 212.969 486.08 217.555 482.107 222.106C478.207 226.585 473.114 230.305 466.83 233.266C460.618 236.228 453.033 237.709 444.076 237.709C431.435 237.709 419.986 234.458 409.729 227.957C399.544 221.384 391.454 211.741 385.458 199.027C379.535 186.242 376.574 170.567 376.574 152.003C376.574 132.933 379.644 117.078 385.783 104.437C391.923 91.7239 400.086 82.2252 410.271 75.9408C420.528 69.5842 431.76 66.4059 443.968 66.4059C453.286 66.4059 461.051 67.9951 467.263 71.1734C473.548 74.2794 478.604 78.1801 482.432 82.8753C486.333 87.4982 489.295 92.049 491.317 96.5275H493.268V68.5729H538.775V297.41H492.726ZM458.704 200.978C466.144 200.978 472.428 198.955 477.557 194.91C482.758 190.793 486.73 185.05 489.475 177.682C492.292 170.314 493.701 161.683 493.701 151.786C493.701 141.89 492.329 133.295 489.584 125.999C486.839 118.703 482.866 113.069 477.665 109.096C472.464 105.123 466.144 103.137 458.704 103.137C451.119 103.137 444.726 105.196 439.525 109.313C434.325 113.43 430.388 119.137 427.715 126.432C425.043 133.728 423.706 142.179 423.706 151.786C423.706 161.466 425.043 170.026 427.715 177.466C430.46 184.834 434.397 190.612 439.525 194.802C444.726 198.919 451.119 200.978 458.704 200.978ZM602.81 237.817C595.659 237.817 589.519 235.289 584.391 230.233C579.334 225.104 576.806 218.964 576.806 211.813C576.806 204.734 579.334 198.666 584.391 193.61C589.519 188.554 595.659 186.025 602.81 186.025C609.745 186.025 615.812 188.554 621.013 193.61C626.214 198.666 628.815 204.734 628.815 211.813C628.815 216.58 627.587 220.95 625.131 224.923C622.747 228.824 619.605 231.966 615.704 234.35C611.803 236.661 607.506 237.817 602.81 237.817ZM756.208 68.5729V103.245H653.491V68.5729H756.208ZM677.004 235V56.546C677.004 44.4829 679.351 34.4785 684.046 26.5328C688.814 18.587 695.315 12.6277 703.55 8.65485C711.784 4.68198 721.139 2.69555 731.613 2.69555C738.691 2.69555 745.156 3.23731 751.007 4.32083C756.931 5.40433 761.337 6.37949 764.226 7.2463L755.991 41.9186C754.186 41.3407 751.946 40.799 749.274 40.2933C746.673 39.7877 744.001 39.5349 741.256 39.5349C734.466 39.5349 729.734 41.124 727.062 44.3023C724.389 47.4084 723.053 51.7785 723.053 57.4128V235H677.004ZM784.407 235V68.5729H830.564V235H784.407ZM807.594 47.1194C800.731 47.1194 794.844 44.8441 789.932 40.2933C785.093 35.6704 782.673 30.1445 782.673 23.7156C782.673 17.3591 785.093 11.9054 789.932 7.35466C794.844 2.73167 800.731 0.420184 807.594 0.420184C814.456 0.420184 820.307 2.73167 825.146 7.35466C830.058 11.9054 832.514 17.3591 832.514 23.7156C832.514 30.1445 830.058 35.6704 825.146 40.2933C820.307 44.8441 814.456 47.1194 807.594 47.1194Z"/>
</mask>
<path d="M67.7463 237.709C55.1054 237.709 43.6563 234.458 33.3991 227.957C23.2141 221.384 15.1239 211.741 9.12844 199.027C3.20525 186.242 0.243658 170.567 0.243658 152.003C0.243658 132.933 3.3136 117.078 9.45349 104.437C15.5934 91.7239 23.7558 82.2252 33.9408 75.9408C44.198 69.5842 55.4304 66.4059 67.6379 66.4059C76.9561 66.4059 84.7213 67.9951 90.9334 71.1734C97.2178 74.2794 102.274 78.1801 106.103 82.8753C110.003 87.4982 112.965 92.049 114.987 96.5275H116.396V13.0973H162.445V235H116.938V208.346H114.987C112.82 212.969 109.75 217.555 105.777 222.106C101.877 226.585 96.7844 230.305 90.5 233.266C84.2879 236.228 76.7033 237.709 67.7463 237.709ZM82.3737 200.978C89.8138 200.978 96.0981 198.955 101.227 194.91C106.428 190.793 110.4 185.05 113.145 177.682C115.962 170.314 117.371 161.683 117.371 151.786C117.371 141.89 115.999 133.295 113.254 125.999C110.509 118.703 106.536 113.069 101.335 109.096C96.1342 105.123 89.8138 103.137 82.3737 103.137C74.7891 103.137 68.3964 105.196 63.1956 109.313C57.9947 113.43 54.058 119.137 51.3853 126.432C48.7127 133.728 47.3763 142.179 47.3763 151.786C47.3763 161.466 48.7127 170.026 51.3853 177.466C54.1302 184.834 58.0669 190.612 63.1956 194.802C68.3964 198.919 74.7891 200.978 82.3737 200.978ZM276.241 238.251C259.121 238.251 244.385 234.783 232.033 227.849C219.754 220.842 210.291 210.946 203.645 198.161C197 185.303 193.677 170.098 193.677 152.545C193.677 135.425 197 120.401 203.645 107.471C210.291 94.5411 219.645 84.4644 231.708 77.241C243.844 70.0176 258.074 66.4059 274.399 66.4059C285.378 66.4059 295.599 68.1757 305.062 71.7151C314.597 75.1823 322.904 80.4193 329.983 87.426C337.134 94.4327 342.696 103.245 346.669 113.864C350.642 124.41 352.628 136.762 352.628 150.92V163.597H212.097V134.992H309.179C309.179 128.347 307.735 122.459 304.845 117.331C301.956 112.202 297.947 108.193 292.818 105.304C287.762 102.342 281.875 100.862 275.157 100.862C268.15 100.862 261.938 102.487 256.521 105.737C251.175 108.916 246.986 113.214 243.952 118.631C240.918 123.976 239.365 129.936 239.293 136.509V163.705C239.293 171.94 240.81 179.055 243.844 185.05C246.95 191.046 251.32 195.669 256.954 198.919C262.588 202.17 269.27 203.795 276.999 203.795C282.128 203.795 286.823 203.073 291.085 201.628C295.346 200.183 298.994 198.016 302.028 195.127C305.062 192.237 307.373 188.698 308.963 184.508L351.653 187.326C349.486 197.583 345.043 206.54 338.326 214.197C331.68 221.781 323.084 227.704 312.538 231.966C302.064 236.156 289.965 238.251 276.241 238.251ZM492.726 297.41V208.346H491.317C489.15 212.969 486.08 217.555 482.107 222.106C478.207 226.585 473.114 230.305 466.83 233.266C460.618 236.228 453.033 237.709 444.076 237.709C431.435 237.709 419.986 234.458 409.729 227.957C399.544 221.384 391.454 211.741 385.458 199.027C379.535 186.242 376.574 170.567 376.574 152.003C376.574 132.933 379.644 117.078 385.783 104.437C391.923 91.7239 400.086 82.2252 410.271 75.9408C420.528 69.5842 431.76 66.4059 443.968 66.4059C453.286 66.4059 461.051 67.9951 467.263 71.1734C473.548 74.2794 478.604 78.1801 482.432 82.8753C486.333 87.4982 489.295 92.049 491.317 96.5275H493.268V68.5729H538.775V297.41H492.726ZM458.704 200.978C466.144 200.978 472.428 198.955 477.557 194.91C482.758 190.793 486.73 185.05 489.475 177.682C492.292 170.314 493.701 161.683 493.701 151.786C493.701 141.89 492.329 133.295 489.584 125.999C486.839 118.703 482.866 113.069 477.665 109.096C472.464 105.123 466.144 103.137 458.704 103.137C451.119 103.137 444.726 105.196 439.525 109.313C434.325 113.43 430.388 119.137 427.715 126.432C425.043 133.728 423.706 142.179 423.706 151.786C423.706 161.466 425.043 170.026 427.715 177.466C430.46 184.834 434.397 190.612 439.525 194.802C444.726 198.919 451.119 200.978 458.704 200.978ZM602.81 237.817C595.659 237.817 589.519 235.289 584.391 230.233C579.334 225.104 576.806 218.964 576.806 211.813C576.806 204.734 579.334 198.666 584.391 193.61C589.519 188.554 595.659 186.025 602.81 186.025C609.745 186.025 615.812 188.554 621.013 193.61C626.214 198.666 628.815 204.734 628.815 211.813C628.815 216.58 627.587 220.95 625.131 224.923C622.747 228.824 619.605 231.966 615.704 234.35C611.803 236.661 607.506 237.817 602.81 237.817ZM756.208 68.5729V103.245H653.491V68.5729H756.208ZM677.004 235V56.546C677.004 44.4829 679.351 34.4785 684.046 26.5328C688.814 18.587 695.315 12.6277 703.55 8.65485C711.784 4.68198 721.139 2.69555 731.613 2.69555C738.691 2.69555 745.156 3.23731 751.007 4.32083C756.931 5.40433 761.337 6.37949 764.226 7.2463L755.991 41.9186C754.186 41.3407 751.946 40.799 749.274 40.2933C746.673 39.7877 744.001 39.5349 741.256 39.5349C734.466 39.5349 729.734 41.124 727.062 44.3023C724.389 47.4084 723.053 51.7785 723.053 57.4128V235H677.004ZM784.407 235V68.5729H830.564V235H784.407ZM807.594 47.1194C800.731 47.1194 794.844 44.8441 789.932 40.2933C785.093 35.6704 782.673 30.1445 782.673 23.7156C782.673 17.3591 785.093 11.9054 789.932 7.35466C794.844 2.73167 800.731 0.420184 807.594 0.420184C814.456 0.420184 820.307 2.73167 825.146 7.35466C830.058 11.9054 832.514 17.3591 832.514 23.7156C832.514 30.1445 830.058 35.6704 825.146 40.2933C820.307 44.8441 814.456 47.1194 807.594 47.1194Z" fill="white" fill-opacity="0.01"/>
<path d="M33.3991 227.957L32.3145 229.638L32.3214 229.642L32.3284 229.646L33.3991 227.957ZM9.12844 199.027L7.31368 199.868L7.3195 199.881L9.12844 199.027ZM9.45349 104.437L11.2525 105.311L11.2545 105.307L9.45349 104.437ZM33.9408 75.9408L34.991 77.6429L34.9943 77.6408L33.9408 75.9408ZM90.9334 71.1734L90.0225 72.9539L90.0348 72.9602L90.0472 72.9663L90.9334 71.1734ZM106.103 82.8753L104.552 84.1391L104.563 84.1522L104.574 84.165L106.103 82.8753ZM114.987 96.5275L113.165 97.3507L113.696 98.5275H114.987V96.5275ZM116.396 96.5275V98.5275H118.396V96.5275H116.396ZM116.396 13.0973V11.0973H114.396V13.0973H116.396ZM162.445 13.0973H164.445V11.0973H162.445V13.0973ZM162.445 235V237H164.445V235H162.445ZM116.938 235H114.938V237H116.938V235ZM116.938 208.346H118.938V206.346H116.938V208.346ZM114.987 208.346V206.346H113.716L113.176 207.497L114.987 208.346ZM105.777 222.106L104.271 220.791L104.269 220.793L105.777 222.106ZM90.5 233.266L89.6474 231.457L89.6393 231.461L90.5 233.266ZM101.227 194.91L102.465 196.48L102.468 196.478L101.227 194.91ZM113.145 177.682L111.277 176.968L111.274 176.976L111.271 176.984L113.145 177.682ZM113.254 125.999L115.126 125.295L113.254 125.999ZM63.1956 109.313L61.9542 107.745L63.1956 109.313ZM51.3853 177.466L49.5031 178.142L49.507 178.153L49.5111 178.164L51.3853 177.466ZM63.1956 194.802L61.9303 196.351L61.9421 196.36L61.9542 196.37L63.1956 194.802ZM67.7463 235.709C55.4682 235.709 44.3932 232.557 34.4697 226.268L32.3284 229.646C42.9193 236.359 54.7426 239.709 67.7463 239.709V235.709ZM34.4836 226.277C24.66 219.937 16.7993 210.604 10.9374 198.174L7.3195 199.881C13.4484 212.877 21.7681 222.831 32.3145 229.638L34.4836 226.277ZM10.9432 198.187C5.17429 185.734 2.24366 170.365 2.24366 152.003H-1.75634C-1.75634 170.77 1.23621 186.75 7.31372 199.868L10.9432 198.187ZM2.24366 152.003C2.24366 133.134 5.28335 117.6 11.2525 105.311L7.65447 103.563C1.34385 116.556 -1.75634 132.733 -1.75634 152.003H2.24366ZM11.2545 105.307C17.2588 92.8744 25.185 83.6934 34.991 77.6429L32.8906 74.2387C22.3266 80.7569 13.928 90.5735 7.65252 103.567L11.2545 105.307ZM34.9943 77.6408C44.9313 71.4827 55.7981 68.4059 67.6379 68.4059V64.4059C55.0627 64.4059 43.4648 67.6857 32.8873 74.2408L34.9943 77.6408ZM67.6379 68.4059C76.7411 68.4059 84.1707 69.9599 90.0225 72.9539L91.8444 69.3929C85.2719 66.0302 77.1712 64.4059 67.6379 64.4059V68.4059ZM90.0472 72.9663C96.1151 75.9654 100.931 79.698 104.552 84.1391L107.653 81.6114C103.617 76.6621 98.3204 72.5935 91.8196 69.3804L90.0472 72.9663ZM104.574 84.165C108.382 88.678 111.233 93.074 113.165 97.3507L116.81 95.7043C114.696 91.0239 111.625 86.3185 107.631 81.5855L104.574 84.165ZM114.987 98.5275H116.396V94.5275H114.987V98.5275ZM118.396 96.5275V13.0973H114.396V96.5275H118.396ZM116.396 15.0973H162.445V11.0973H116.396V15.0973ZM160.445 13.0973V235H164.445V13.0973H160.445ZM162.445 233H116.938V237H162.445V233ZM118.938 235V208.346H114.938V235H118.938ZM116.938 206.346H114.987V210.346H116.938V206.346ZM113.176 207.497C111.101 211.923 108.143 216.356 104.271 220.791L107.284 223.422C111.358 218.755 114.539 214.014 116.798 209.195L113.176 207.497ZM104.269 220.793C100.579 225.03 95.7234 228.594 89.6474 231.457L91.3526 235.076C97.8454 232.016 103.175 228.14 107.286 223.42L104.269 220.793ZM89.6393 231.461C83.7643 234.262 76.4918 235.709 67.7463 235.709V239.709C76.9148 239.709 84.8114 238.194 91.3607 235.072L89.6393 231.461ZM82.3737 202.978C90.1975 202.978 96.9355 200.842 102.465 196.48L99.9882 193.34C95.2608 197.068 89.4301 198.978 82.3737 198.978V202.978ZM102.468 196.478C108.005 192.095 112.171 186.027 115.02 178.381L111.271 176.984C108.63 184.074 104.851 189.49 99.9853 193.342L102.468 196.478ZM115.013 178.397C117.937 170.751 119.371 161.867 119.371 151.786H115.371C115.371 161.498 113.988 169.878 111.277 176.968L115.013 178.397ZM119.371 151.786C119.371 141.712 117.975 132.867 115.126 125.295L111.382 126.703C114.023 133.722 115.371 142.069 115.371 151.786H119.371ZM115.126 125.295C112.274 117.716 108.101 111.748 102.549 107.507L100.121 110.686C104.971 114.391 108.743 119.691 111.382 126.703L115.126 125.295ZM102.549 107.507C96.9528 103.232 90.1897 101.137 82.3737 101.137V105.137C89.4379 105.137 95.3157 107.015 100.121 110.686L102.549 107.507ZM82.3737 101.137C74.4064 101.137 67.5581 103.308 61.9542 107.745L64.437 110.881C69.2347 107.083 75.1719 105.137 82.3737 105.137V101.137ZM61.9542 107.745C56.4176 112.128 52.2849 118.162 49.5074 125.744L53.2633 127.12C55.831 120.111 59.5719 114.733 64.437 110.881L61.9542 107.745ZM49.5074 125.744C46.7374 133.306 45.3763 141.998 45.3763 151.786H49.3763C49.3763 142.361 50.6879 134.15 53.2633 127.12L49.5074 125.744ZM45.3763 151.786C45.3763 161.646 46.7372 170.442 49.5031 178.142L53.2675 176.79C50.6881 169.609 49.3763 161.285 49.3763 151.786H45.3763ZM49.5111 178.164C52.3566 185.802 56.4793 191.898 61.9303 196.351L64.4608 193.253C59.6546 189.327 55.9038 183.865 53.2595 176.767L49.5111 178.164ZM61.9542 196.37C67.5581 200.806 74.4064 202.978 82.3737 202.978V198.978C75.1719 198.978 69.2347 197.032 64.437 193.234L61.9542 196.37ZM232.033 227.849L231.042 229.586L231.054 229.593L232.033 227.849ZM203.645 198.161L201.869 199.079L201.871 199.083L203.645 198.161ZM203.645 107.471L201.867 106.557L203.645 107.471ZM231.708 77.241L230.685 75.5224L230.681 75.5251L231.708 77.241ZM305.062 71.7151L304.361 73.5884L304.37 73.5916L304.378 73.5947L305.062 71.7151ZM329.983 87.426L328.576 88.8475L328.583 88.8546L329.983 87.426ZM346.669 113.864L344.796 114.564L344.797 114.569L346.669 113.864ZM352.628 163.597V165.597H354.628V163.597H352.628ZM212.097 163.597H210.097V165.597H212.097V163.597ZM212.097 134.992V132.992H210.097V134.992H212.097ZM309.179 134.992V136.992H311.179V134.992H309.179ZM304.845 117.331L303.103 118.313L304.845 117.331ZM292.818 105.304L291.807 107.03L291.822 107.038L291.837 107.046L292.818 105.304ZM256.521 105.737L257.543 107.456L257.55 107.452L256.521 105.737ZM243.952 118.631L245.691 119.618L245.697 119.608L243.952 118.631ZM239.293 136.509L237.293 136.487L237.293 136.498V136.509H239.293ZM243.844 185.05L242.059 185.953L242.063 185.962L242.068 185.97L243.844 185.05ZM291.085 201.628L290.443 199.734L291.085 201.628ZM302.028 195.127L300.649 193.679L302.028 195.127ZM308.963 184.508L309.094 182.513L307.617 182.415L307.093 183.799L308.963 184.508ZM351.653 187.326L353.61 187.739L354.087 185.482L351.785 185.33L351.653 187.326ZM338.326 214.197L336.822 212.878L336.821 212.879L338.326 214.197ZM312.538 231.966L313.281 233.823L313.288 233.82L312.538 231.966ZM276.241 236.251C259.393 236.251 245.009 232.84 233.012 226.105L231.054 229.593C243.762 236.727 258.849 240.251 276.241 240.251V236.251ZM233.025 226.112C221.086 219.299 211.892 209.689 205.42 197.238L201.871 199.083C208.69 212.203 218.422 222.385 231.042 229.586L233.025 226.112ZM205.422 197.242C198.951 184.723 195.677 169.845 195.677 152.545H191.677C191.677 170.35 195.048 185.883 201.869 199.079L205.422 197.242ZM195.677 152.545C195.677 135.687 198.948 120.986 205.424 108.385L201.867 106.557C195.052 119.816 191.677 135.164 191.677 152.545H195.677ZM205.424 108.385C211.905 95.7756 221.004 85.9817 232.736 78.9569L230.681 75.5251C218.286 82.9471 208.677 93.3065 201.867 106.557L205.424 108.385ZM232.731 78.9596C244.512 71.9475 258.377 68.4059 274.399 68.4059V64.4059C257.771 64.4059 243.176 68.0877 230.685 75.5224L232.731 78.9596ZM274.399 68.4059C285.16 68.4059 295.141 70.1397 304.361 73.5884L305.763 69.8419C296.057 66.2116 285.597 64.4059 274.399 64.4059V68.4059ZM304.378 73.5947C313.647 76.9651 321.706 82.0478 328.576 88.8475L331.39 86.0046C324.102 78.7908 315.547 73.3996 305.745 69.8355L304.378 73.5947ZM328.583 88.8546C335.499 95.6307 340.912 104.184 344.796 114.564L348.542 113.163C344.48 102.307 338.769 93.2347 331.382 85.9974L328.583 88.8546ZM344.797 114.569C348.666 124.84 350.628 136.943 350.628 150.92H354.628C354.628 136.58 352.617 123.98 348.54 113.159L344.797 114.569ZM350.628 150.92V163.597H354.628V150.92H350.628ZM352.628 161.597H212.097V165.597H352.628V161.597ZM214.097 163.597V134.992H210.097V163.597H214.097ZM212.097 136.992H309.179V132.992H212.097V136.992ZM311.179 134.992C311.179 128.048 309.667 121.814 306.588 116.349L303.103 118.313C305.802 123.105 307.179 128.645 307.179 134.992H311.179ZM306.588 116.349C303.519 110.902 299.247 106.63 293.8 103.561L291.837 107.046C296.647 109.756 300.393 113.502 303.103 118.313L306.588 116.349ZM293.829 103.578C288.424 100.412 282.177 98.8615 275.157 98.8615V102.862C281.572 102.862 287.1 104.273 291.807 107.03L293.829 103.578ZM275.157 98.8615C267.829 98.8615 261.253 100.565 255.492 104.022L257.55 107.452C262.623 104.408 268.472 102.862 275.157 102.862V98.8615ZM255.499 104.018C249.852 107.376 245.413 111.929 242.207 117.654L245.697 119.608C248.559 114.498 252.499 110.455 257.543 107.456L255.499 104.018ZM242.213 117.644C239 123.304 237.369 129.599 237.293 136.487L241.293 136.531C241.362 130.272 242.836 124.649 245.691 119.618L242.213 117.644ZM237.293 136.509V163.705H241.293V136.509H237.293ZM237.293 163.705C237.293 172.184 238.855 179.622 242.059 185.953L245.628 184.147C242.764 178.488 241.293 171.696 241.293 163.705H237.293ZM242.068 185.97C245.343 192.291 249.976 197.202 255.955 200.651L257.954 197.187C252.663 194.135 248.557 189.8 245.62 184.13L242.068 185.97ZM255.955 200.651C261.946 204.108 268.985 205.795 276.999 205.795V201.795C269.555 201.795 263.231 200.232 257.954 197.187L255.955 200.651ZM276.999 205.795C282.316 205.795 287.232 205.046 291.727 203.522L290.443 199.734C286.414 201.099 281.939 201.795 276.999 201.795V205.795ZM291.727 203.522C296.243 201.991 300.148 199.679 303.407 196.575L300.649 193.679C297.841 196.353 294.45 198.375 290.443 199.734L291.727 203.522ZM303.407 196.575C306.673 193.465 309.145 189.667 310.833 185.218L307.093 183.799C305.602 187.729 303.451 191.01 300.649 193.679L303.407 196.575ZM308.831 186.504L351.521 189.321L351.785 185.33L309.094 182.513L308.831 186.504ZM349.696 186.912C347.598 196.844 343.307 205.487 336.822 212.878L339.829 215.516C346.78 207.593 351.374 198.322 353.61 187.739L349.696 186.912ZM336.821 212.879C330.407 220.199 322.082 225.952 311.789 230.112L313.288 233.82C324.086 229.457 332.953 223.363 339.83 215.515L336.821 212.879ZM311.795 230.109C301.603 234.186 289.764 236.251 276.241 236.251V240.251C290.166 240.251 302.526 238.125 313.281 233.823L311.795 230.109ZM492.726 297.41H490.726V299.41H492.726V297.41ZM492.726 208.346H494.726V206.346H492.726V208.346ZM491.317 208.346V206.346H490.046L489.506 207.497L491.317 208.346ZM482.107 222.106L480.601 220.791L480.599 220.793L482.107 222.106ZM466.83 233.266L465.977 231.457L465.969 231.461L466.83 233.266ZM409.729 227.957L408.644 229.638L408.651 229.642L408.658 229.646L409.729 227.957ZM385.458 199.027L383.644 199.868L383.649 199.881L385.458 199.027ZM385.783 104.437L387.582 105.311L387.584 105.307L385.783 104.437ZM410.271 75.9408L411.321 77.6429L411.324 77.6408L410.271 75.9408ZM467.263 71.1734L466.352 72.9539L466.365 72.9602L466.377 72.9663L467.263 71.1734ZM482.432 82.8753L480.882 84.1391L480.893 84.1522L480.904 84.165L482.432 82.8753ZM491.317 96.5275L489.495 97.3507L490.026 98.5275H491.317V96.5275ZM493.268 96.5275V98.5275H495.268V96.5275H493.268ZM493.268 68.5729V66.5729H491.268V68.5729H493.268ZM538.775 68.5729H540.775V66.5729H538.775V68.5729ZM538.775 297.41V299.41H540.775V297.41H538.775ZM477.557 194.91L478.795 196.48L478.798 196.478L477.557 194.91ZM489.475 177.682L487.607 176.968L487.604 176.976L487.601 176.984L489.475 177.682ZM489.584 125.999L491.456 125.295L489.584 125.999ZM439.525 109.313L438.284 107.745L439.525 109.313ZM427.715 177.466L425.833 178.142L425.837 178.153L425.841 178.164L427.715 177.466ZM439.525 194.802L438.26 196.351L438.272 196.36L438.284 196.37L439.525 194.802ZM494.726 297.41V208.346H490.726V297.41H494.726ZM492.726 206.346H491.317V210.346H492.726V206.346ZM489.506 207.497C487.431 211.923 484.473 216.356 480.601 220.791L483.614 223.422C487.688 218.755 490.869 214.014 493.128 209.195L489.506 207.497ZM480.599 220.793C476.909 225.03 472.053 228.594 465.977 231.457L467.683 235.076C474.175 232.016 479.505 228.14 483.616 223.42L480.599 220.793ZM465.969 231.461C460.094 234.262 452.822 235.709 444.076 235.709V239.709C453.245 239.709 461.141 238.194 467.691 235.072L465.969 231.461ZM444.076 235.709C431.798 235.709 420.723 232.557 410.8 226.268L408.658 229.646C419.249 236.359 431.072 239.709 444.076 239.709V235.709ZM410.814 226.277C400.99 219.937 393.129 210.604 387.267 198.174L383.649 199.881C389.778 212.877 398.098 222.831 408.644 229.638L410.814 226.277ZM387.273 198.187C381.504 185.734 378.574 170.365 378.574 152.003H374.574C374.574 170.77 377.566 186.75 383.644 199.868L387.273 198.187ZM378.574 152.003C378.574 133.134 381.613 117.6 387.582 105.311L383.984 103.563C377.674 116.556 374.574 132.733 374.574 152.003H378.574ZM387.584 105.307C393.589 92.8744 401.515 83.6934 411.321 77.6429L409.221 74.2387C398.657 80.7569 390.258 90.5735 383.982 103.567L387.584 105.307ZM411.324 77.6408C421.261 71.4827 432.128 68.4059 443.968 68.4059V64.4059C431.393 64.4059 419.795 67.6857 409.217 74.2408L411.324 77.6408ZM443.968 68.4059C453.071 68.4059 460.501 69.9599 466.352 72.9539L468.174 69.3929C461.602 66.0302 453.501 64.4059 443.968 64.4059V68.4059ZM466.377 72.9663C472.445 75.9654 477.261 79.698 480.882 84.1391L483.983 81.6114C479.947 76.6621 474.65 72.5935 468.15 69.3804L466.377 72.9663ZM480.904 84.165C484.712 88.678 487.563 93.074 489.495 97.3507L493.14 95.7043C491.026 91.0239 487.954 86.3185 483.961 81.5855L480.904 84.165ZM491.317 98.5275H493.268V94.5275H491.317V98.5275ZM495.268 96.5275V68.5729H491.268V96.5275H495.268ZM493.268 70.5729H538.775V66.5729H493.268V70.5729ZM536.775 68.5729V297.41H540.775V68.5729H536.775ZM538.775 295.41H492.726V299.41H538.775V295.41ZM458.704 202.978C466.527 202.978 473.265 200.842 478.795 196.48L476.318 193.34C471.591 197.068 465.76 198.978 458.704 198.978V202.978ZM478.798 196.478C484.335 192.095 488.501 186.027 491.349 178.381L487.601 176.984C484.96 184.074 481.181 189.49 476.315 193.342L478.798 196.478ZM491.343 178.397C494.267 170.751 495.701 161.867 495.701 151.786H491.701C491.701 161.498 490.318 169.878 487.607 176.968L491.343 178.397ZM495.701 151.786C495.701 141.712 494.305 132.867 491.456 125.295L487.712 126.703C490.353 133.722 491.701 142.069 491.701 151.786H495.701ZM491.456 125.295C488.604 117.716 484.431 111.748 478.879 107.507L476.451 110.686C481.301 114.391 485.073 119.691 487.712 126.703L491.456 125.295ZM478.879 107.507C473.283 103.232 466.52 101.137 458.704 101.137V105.137C465.768 105.137 471.646 107.015 476.451 110.686L478.879 107.507ZM458.704 101.137C450.736 101.137 443.888 103.308 438.284 107.745L440.767 110.881C445.565 107.083 451.502 105.137 458.704 105.137V101.137ZM438.284 107.745C432.747 112.128 428.615 118.162 425.837 125.744L429.593 127.12C432.161 120.111 435.902 114.733 440.767 110.881L438.284 107.745ZM425.837 125.744C423.067 133.306 421.706 141.998 421.706 151.786H425.706C425.706 142.361 427.018 134.15 429.593 127.12L425.837 125.744ZM421.706 151.786C421.706 161.646 423.067 170.442 425.833 178.142L429.597 176.79C427.018 169.609 425.706 161.285 425.706 151.786H421.706ZM425.841 178.164C428.687 185.802 432.809 191.898 438.26 196.351L440.791 193.253C435.984 189.327 432.234 183.865 429.589 176.767L425.841 178.164ZM438.284 196.37C443.888 200.806 450.736 202.978 458.704 202.978V198.978C451.502 198.978 445.565 197.032 440.767 193.234L438.284 196.37ZM584.391 230.233L582.966 231.637L582.976 231.647L582.987 231.657L584.391 230.233ZM584.391 193.61L582.987 192.186L582.982 192.191L582.977 192.196L584.391 193.61ZM621.013 193.61L619.619 195.044L621.013 193.61ZM625.131 224.923L623.429 223.872L623.424 223.88L625.131 224.923ZM615.704 234.35L616.724 236.07L616.735 236.064L616.747 236.056L615.704 234.35ZM602.81 235.817C596.189 235.817 590.552 233.499 585.795 228.808L582.987 231.657C588.486 237.079 595.13 239.817 602.81 239.817V235.817ZM585.815 228.828C581.125 224.071 578.806 218.434 578.806 211.813H574.806C574.806 219.494 577.544 226.137 582.966 231.637L585.815 228.828ZM578.806 211.813C578.806 205.27 581.119 199.71 585.805 195.024L582.977 192.196C577.549 197.623 574.806 204.198 574.806 211.813H578.806ZM585.795 195.034C590.552 190.344 596.189 188.025 602.81 188.025V184.025C595.13 184.025 588.486 186.763 582.987 192.186L585.795 195.034ZM602.81 188.025C609.198 188.025 614.773 190.332 619.619 195.044L622.407 192.176C616.852 186.775 610.292 184.025 602.81 184.025V188.025ZM619.619 195.044C624.443 199.734 626.815 205.289 626.815 211.813H630.815C630.815 204.179 627.985 197.598 622.407 192.176L619.619 195.044ZM626.815 211.813C626.815 216.217 625.686 220.222 623.429 223.872L626.832 225.975C629.487 221.679 630.815 216.944 630.815 211.813H626.815ZM623.424 223.88C621.206 227.51 618.291 230.425 614.661 232.643L616.747 236.056C620.918 233.507 624.288 230.138 626.837 225.966L623.424 223.88ZM614.685 232.629C611.104 234.751 607.16 235.817 602.81 235.817V239.817C607.851 239.817 612.503 238.572 616.724 236.07L614.685 232.629ZM756.208 68.5729H758.208V66.5729H756.208V68.5729ZM756.208 103.245V105.245H758.208V103.245H756.208ZM653.492 103.245H651.492V105.245H653.492V103.245ZM653.492 68.5729V66.5729H651.492V68.5729H653.492ZM677.004 235H675.004V237H677.004V235ZM684.046 26.5328L682.331 25.5037L682.325 25.5153L684.046 26.5328ZM703.55 8.65485L702.681 6.85354L703.55 8.65485ZM751.007 4.32083L750.643 6.2874L750.647 6.28819L751.007 4.32083ZM764.226 7.2463L766.172 7.70845L766.608 5.8728L764.801 5.33065L764.226 7.2463ZM755.992 41.9186L755.382 43.8235L757.438 44.4815L757.937 42.3808L755.992 41.9186ZM749.274 40.2933L748.892 42.2566L748.902 42.2585L749.274 40.2933ZM727.062 44.3023L728.578 45.6068L728.585 45.5982L728.593 45.5895L727.062 44.3023ZM723.053 235V237H725.053V235H723.053ZM754.208 68.5729V103.245H758.208V68.5729H754.208ZM756.208 101.245H653.492V105.245H756.208V101.245ZM655.492 103.245V68.5729H651.492V103.245H655.492ZM653.492 70.5729H756.208V66.5729H653.492V70.5729ZM679.004 235V56.546H675.004V235H679.004ZM679.004 56.546C679.004 44.7336 681.303 35.107 685.768 27.5502L682.325 25.5153C677.4 33.85 675.004 44.2322 675.004 56.546H679.004ZM685.761 27.5618C690.331 19.9456 696.54 14.2572 704.419 10.4562L702.681 6.85354C694.09 10.9983 687.297 17.2284 682.331 25.5038L685.761 27.5618ZM704.419 10.4562C712.345 6.63188 721.396 4.69555 731.613 4.69555V0.695549C720.882 0.695549 711.223 2.73209 702.681 6.85354L704.419 10.4562ZM731.613 4.69555C738.591 4.69555 744.932 5.22983 750.643 6.28739L751.372 2.35426C745.38 1.24479 738.791 0.695549 731.613 0.695549V4.69555ZM750.647 6.28819C756.555 7.36874 760.872 8.32809 763.651 9.16196L764.801 5.33065C761.802 4.43089 757.307 3.43993 751.367 2.35347L750.647 6.28819ZM762.28 6.78416L754.046 41.4565L757.937 42.3808L766.172 7.70845L762.28 6.78416ZM756.601 40.0138C754.692 39.4028 752.367 38.8431 749.646 38.3282L748.902 42.2585C751.526 42.7548 753.679 43.2787 755.382 43.8235L756.601 40.0138ZM749.655 38.3301C746.925 37.7991 744.124 37.5349 741.256 37.5349V41.5349C743.877 41.5349 746.422 41.7763 748.892 42.2566L749.655 38.3301ZM741.256 37.5349C734.243 37.5349 728.77 39.164 725.531 43.0151L728.593 45.5895C730.699 43.0841 734.689 41.5349 741.256 41.5349V37.5349ZM725.546 42.9978C722.461 46.5829 721.053 51.4793 721.053 57.4128H725.053C725.053 52.0778 726.317 48.2338 728.578 45.6068L725.546 42.9978ZM721.053 57.4128V235H725.053V57.4128H721.053ZM723.053 233H677.004V237H723.053V233ZM784.407 235H782.407V237H784.407V235ZM784.407 68.5729V66.5729H782.407V68.5729H784.407ZM830.564 68.5729H832.564V66.5729H830.564V68.5729ZM830.564 235V237H832.564V235H830.564ZM789.932 40.2933L788.551 41.7396L788.562 41.7501L788.573 41.7605L789.932 40.2933ZM789.932 7.35466L791.302 8.8117L791.303 8.81106L789.932 7.35466ZM825.146 7.35466L823.765 8.80087L823.776 8.81142L823.787 8.82178L825.146 7.35466ZM825.146 40.2933L826.517 41.7504L826.517 41.7497L825.146 40.2933ZM786.407 235V68.5729H782.407V235H786.407ZM784.407 70.5729H830.564V66.5729H784.407V70.5729ZM828.564 68.5729V235H832.564V68.5729H828.564ZM830.564 233H784.407V237H830.564V233ZM807.594 45.1195C801.222 45.1195 795.824 43.0251 791.292 38.8262L788.573 41.7605C793.865 46.6631 800.241 49.1195 807.594 49.1195V45.1195ZM791.314 38.8471C786.851 34.5841 784.673 29.5734 784.673 23.7156H780.673C780.673 30.7155 783.334 36.7566 788.551 41.7396L791.314 38.8471ZM784.673 23.7156C784.673 17.9382 786.844 13.0036 791.302 8.8117L788.562 5.89761C783.341 10.8072 780.673 16.7799 780.673 23.7156H784.673ZM791.303 8.81106C795.837 4.54392 801.231 2.42019 807.594 2.42019V-1.57981C800.232 -1.57981 793.852 0.91943 788.562 5.89825L791.303 8.81106ZM807.594 2.42019C813.956 2.42019 819.308 4.54321 823.765 8.80087L826.528 5.90844C821.306 0.920139 814.956 -1.57981 807.594 -1.57981V2.42019ZM823.787 8.82178C828.315 13.0168 830.514 17.9486 830.514 23.7156H834.514C834.514 16.7695 831.802 10.794 826.506 5.88754L823.787 8.82178ZM830.514 23.7156C830.514 29.5632 828.308 34.571 823.776 38.8369L826.517 41.7497C831.808 36.7697 834.514 30.7257 834.514 23.7156H830.514ZM823.776 38.8363C819.321 43.0257 813.965 45.1195 807.594 45.1195V49.1195C814.946 49.1195 821.293 46.6624 826.517 41.7504L823.776 38.8363Z" fill="url(#paint0_diamond_251_4972)" fill-opacity="0.2" mask="url(#path-1-outside-1_251_4972)"/>
<defs>
<radialGradient id="paint0_diamond_251_4972" cx="0" cy="0" r="1" gradientUnits="userSpaceOnUse" gradientTransform="translate(419 124.5) rotate(90) scale(307 717.165)">
<stop stop-color="white"/>
<stop offset="1" stop-color="white" stop-opacity="0"/>
</radialGradient>
</defs>
</svg>
