<svg width="862" height="286" viewBox="0 0 862 286" fill="none" xmlns="http://www.w3.org/2000/svg">
<mask id="path-1-outside-1_1_4325" maskUnits="userSpaceOnUse" x="10" y="58" width="837" height="302" fill="black">
<rect fill="white" x="10" y="58" width="837" height="302"/>
<path d="M79.7463 297.709C67.1054 297.709 55.6563 294.458 45.3991 287.957C35.2141 281.384 27.1239 271.741 21.1284 259.027C15.2053 246.242 12.2437 230.567 12.2437 212.003C12.2437 192.933 15.3136 177.078 21.4535 164.437C27.5934 151.724 35.7558 142.225 45.9408 135.941C56.198 129.584 67.4304 126.406 79.6379 126.406C88.9561 126.406 96.7213 127.995 102.933 131.173C109.218 134.279 114.274 138.18 118.103 142.875C122.003 147.498 124.965 152.049 126.987 156.527H128.396V73.0973H174.445V295H128.938V268.346H126.987C124.82 272.969 121.75 277.555 117.777 282.106C113.877 286.585 108.784 290.305 102.5 293.266C96.2879 296.228 88.7033 297.709 79.7463 297.709ZM94.3737 260.978C101.814 260.978 108.098 258.955 113.227 254.91C118.428 250.793 122.4 245.05 125.145 237.682C127.962 230.314 129.371 221.683 129.371 211.786C129.371 201.89 127.999 193.295 125.254 185.999C122.509 178.703 118.536 173.069 113.335 169.096C108.134 165.123 101.814 163.137 94.3737 163.137C86.7891 163.137 80.3964 165.196 75.1956 169.313C69.9947 173.43 66.058 179.137 63.3853 186.432C60.7127 193.728 59.3763 202.179 59.3763 211.786C59.3763 221.466 60.7127 230.026 63.3853 237.466C66.1302 244.834 70.0669 250.612 75.1956 254.802C80.3964 258.919 86.7891 260.978 94.3737 260.978ZM288.241 298.251C271.121 298.251 256.385 294.783 244.033 287.849C231.754 280.842 222.291 270.946 215.645 258.161C209 245.303 205.677 230.098 205.677 212.545C205.677 195.425 209 180.401 215.645 167.471C222.291 154.541 231.645 144.464 243.708 137.241C255.844 130.018 270.074 126.406 286.399 126.406C297.378 126.406 307.599 128.176 317.062 131.715C326.597 135.182 334.904 140.419 341.983 147.426C349.134 154.433 354.696 163.245 358.669 173.864C362.642 184.41 364.628 196.762 364.628 210.92V223.597H224.097V194.992H321.179C321.179 188.347 319.735 182.459 316.845 177.331C313.956 172.202 309.947 168.193 304.818 165.304C299.762 162.342 293.875 160.862 287.157 160.862C280.15 160.862 273.938 162.487 268.521 165.737C263.175 168.916 258.986 173.214 255.952 178.631C252.918 183.976 251.365 189.936 251.293 196.509V223.705C251.293 231.94 252.81 239.055 255.844 245.05C258.95 251.046 263.32 255.669 268.954 258.919C274.588 262.17 281.27 263.795 288.999 263.795C294.128 263.795 298.823 263.073 303.085 261.628C307.346 260.183 310.994 258.016 314.028 255.127C317.062 252.237 319.373 248.698 320.963 244.508L363.653 247.326C361.486 257.583 357.043 266.54 350.326 274.197C343.68 281.781 335.084 287.704 324.538 291.966C314.064 296.156 301.965 298.251 288.241 298.251ZM504.726 357.41V268.346H503.317C501.15 272.969 498.08 277.555 494.107 282.106C490.207 286.585 485.114 290.305 478.83 293.266C472.618 296.228 465.033 297.709 456.076 297.709C443.435 297.709 431.986 294.458 421.729 287.957C411.544 281.384 403.454 271.741 397.458 259.027C391.535 246.242 388.574 230.567 388.574 212.003C388.574 192.933 391.644 177.078 397.783 164.437C403.923 151.724 412.086 142.225 422.271 135.941C432.528 129.584 443.76 126.406 455.968 126.406C465.286 126.406 473.051 127.995 479.263 131.173C485.548 134.279 490.604 138.18 494.432 142.875C498.333 147.498 501.295 152.049 503.317 156.527H505.268V128.573H550.775V357.41H504.726ZM470.704 260.978C478.144 260.978 484.428 258.955 489.557 254.91C494.758 250.793 498.73 245.05 501.475 237.682C504.292 230.314 505.701 221.683 505.701 211.786C505.701 201.89 504.329 193.295 501.584 185.999C498.839 178.703 494.866 173.069 489.665 169.096C484.464 165.123 478.144 163.137 470.704 163.137C463.119 163.137 456.726 165.196 451.525 169.313C446.325 173.43 442.388 179.137 439.715 186.432C437.043 193.728 435.706 202.179 435.706 211.786C435.706 221.466 437.043 230.026 439.715 237.466C442.46 244.834 446.397 250.612 451.525 254.802C456.726 258.919 463.119 260.978 470.704 260.978ZM614.81 297.817C607.659 297.817 601.519 295.289 596.391 290.233C591.334 285.104 588.806 278.964 588.806 271.813C588.806 264.734 591.334 258.666 596.391 253.61C601.519 248.554 607.659 246.025 614.81 246.025C621.745 246.025 627.812 248.554 633.013 253.61C638.214 258.666 640.815 264.734 640.815 271.813C640.815 276.58 639.587 280.95 637.131 284.923C634.747 288.824 631.605 291.966 627.704 294.35C623.803 296.661 619.506 297.817 614.81 297.817ZM768.208 128.573V163.245H665.491V128.573H768.208ZM689.004 295V116.546C689.004 104.483 691.351 94.4785 696.046 86.5328C700.814 78.587 707.315 72.6277 715.55 68.6549C723.784 64.682 733.139 62.6956 743.613 62.6956C750.691 62.6956 757.156 63.2373 763.007 64.3208C768.931 65.4043 773.337 66.3795 776.226 67.2463L767.991 101.919C766.186 101.341 763.946 100.799 761.274 100.293C758.673 99.7877 756.001 99.5349 753.256 99.5349C746.466 99.5349 741.734 101.124 739.062 104.302C736.389 107.408 735.053 111.779 735.053 117.413V295H689.004ZM796.407 295V128.573H842.564V295H796.407ZM819.594 107.119C812.731 107.119 806.844 104.844 801.932 100.293C797.093 95.6704 794.673 90.1445 794.673 83.7156C794.673 77.3591 797.093 71.9054 801.932 67.3547C806.844 62.7317 812.731 60.4202 819.594 60.4202C826.456 60.4202 832.307 62.7317 837.146 67.3547C842.058 71.9054 844.514 77.3591 844.514 83.7156C844.514 90.1445 842.058 95.6704 837.146 100.293C832.307 104.844 826.456 107.119 819.594 107.119Z"/>
</mask>
<path d="M79.7463 297.709C67.1054 297.709 55.6563 294.458 45.3991 287.957C35.2141 281.384 27.1239 271.741 21.1284 259.027C15.2053 246.242 12.2437 230.567 12.2437 212.003C12.2437 192.933 15.3136 177.078 21.4535 164.437C27.5934 151.724 35.7558 142.225 45.9408 135.941C56.198 129.584 67.4304 126.406 79.6379 126.406C88.9561 126.406 96.7213 127.995 102.933 131.173C109.218 134.279 114.274 138.18 118.103 142.875C122.003 147.498 124.965 152.049 126.987 156.527H128.396V73.0973H174.445V295H128.938V268.346H126.987C124.82 272.969 121.75 277.555 117.777 282.106C113.877 286.585 108.784 290.305 102.5 293.266C96.2879 296.228 88.7033 297.709 79.7463 297.709ZM94.3737 260.978C101.814 260.978 108.098 258.955 113.227 254.91C118.428 250.793 122.4 245.05 125.145 237.682C127.962 230.314 129.371 221.683 129.371 211.786C129.371 201.89 127.999 193.295 125.254 185.999C122.509 178.703 118.536 173.069 113.335 169.096C108.134 165.123 101.814 163.137 94.3737 163.137C86.7891 163.137 80.3964 165.196 75.1956 169.313C69.9947 173.43 66.058 179.137 63.3853 186.432C60.7127 193.728 59.3763 202.179 59.3763 211.786C59.3763 221.466 60.7127 230.026 63.3853 237.466C66.1302 244.834 70.0669 250.612 75.1956 254.802C80.3964 258.919 86.7891 260.978 94.3737 260.978ZM288.241 298.251C271.121 298.251 256.385 294.783 244.033 287.849C231.754 280.842 222.291 270.946 215.645 258.161C209 245.303 205.677 230.098 205.677 212.545C205.677 195.425 209 180.401 215.645 167.471C222.291 154.541 231.645 144.464 243.708 137.241C255.844 130.018 270.074 126.406 286.399 126.406C297.378 126.406 307.599 128.176 317.062 131.715C326.597 135.182 334.904 140.419 341.983 147.426C349.134 154.433 354.696 163.245 358.669 173.864C362.642 184.41 364.628 196.762 364.628 210.92V223.597H224.097V194.992H321.179C321.179 188.347 319.735 182.459 316.845 177.331C313.956 172.202 309.947 168.193 304.818 165.304C299.762 162.342 293.875 160.862 287.157 160.862C280.15 160.862 273.938 162.487 268.521 165.737C263.175 168.916 258.986 173.214 255.952 178.631C252.918 183.976 251.365 189.936 251.293 196.509V223.705C251.293 231.94 252.81 239.055 255.844 245.05C258.95 251.046 263.32 255.669 268.954 258.919C274.588 262.17 281.27 263.795 288.999 263.795C294.128 263.795 298.823 263.073 303.085 261.628C307.346 260.183 310.994 258.016 314.028 255.127C317.062 252.237 319.373 248.698 320.963 244.508L363.653 247.326C361.486 257.583 357.043 266.54 350.326 274.197C343.68 281.781 335.084 287.704 324.538 291.966C314.064 296.156 301.965 298.251 288.241 298.251ZM504.726 357.41V268.346H503.317C501.15 272.969 498.08 277.555 494.107 282.106C490.207 286.585 485.114 290.305 478.83 293.266C472.618 296.228 465.033 297.709 456.076 297.709C443.435 297.709 431.986 294.458 421.729 287.957C411.544 281.384 403.454 271.741 397.458 259.027C391.535 246.242 388.574 230.567 388.574 212.003C388.574 192.933 391.644 177.078 397.783 164.437C403.923 151.724 412.086 142.225 422.271 135.941C432.528 129.584 443.76 126.406 455.968 126.406C465.286 126.406 473.051 127.995 479.263 131.173C485.548 134.279 490.604 138.18 494.432 142.875C498.333 147.498 501.295 152.049 503.317 156.527H505.268V128.573H550.775V357.41H504.726ZM470.704 260.978C478.144 260.978 484.428 258.955 489.557 254.91C494.758 250.793 498.73 245.05 501.475 237.682C504.292 230.314 505.701 221.683 505.701 211.786C505.701 201.89 504.329 193.295 501.584 185.999C498.839 178.703 494.866 173.069 489.665 169.096C484.464 165.123 478.144 163.137 470.704 163.137C463.119 163.137 456.726 165.196 451.525 169.313C446.325 173.43 442.388 179.137 439.715 186.432C437.043 193.728 435.706 202.179 435.706 211.786C435.706 221.466 437.043 230.026 439.715 237.466C442.46 244.834 446.397 250.612 451.525 254.802C456.726 258.919 463.119 260.978 470.704 260.978ZM614.81 297.817C607.659 297.817 601.519 295.289 596.391 290.233C591.334 285.104 588.806 278.964 588.806 271.813C588.806 264.734 591.334 258.666 596.391 253.61C601.519 248.554 607.659 246.025 614.81 246.025C621.745 246.025 627.812 248.554 633.013 253.61C638.214 258.666 640.815 264.734 640.815 271.813C640.815 276.58 639.587 280.95 637.131 284.923C634.747 288.824 631.605 291.966 627.704 294.35C623.803 296.661 619.506 297.817 614.81 297.817ZM768.208 128.573V163.245H665.491V128.573H768.208ZM689.004 295V116.546C689.004 104.483 691.351 94.4785 696.046 86.5328C700.814 78.587 707.315 72.6277 715.55 68.6549C723.784 64.682 733.139 62.6956 743.613 62.6956C750.691 62.6956 757.156 63.2373 763.007 64.3208C768.931 65.4043 773.337 66.3795 776.226 67.2463L767.991 101.919C766.186 101.341 763.946 100.799 761.274 100.293C758.673 99.7877 756.001 99.5349 753.256 99.5349C746.466 99.5349 741.734 101.124 739.062 104.302C736.389 107.408 735.053 111.779 735.053 117.413V295H689.004ZM796.407 295V128.573H842.564V295H796.407ZM819.594 107.119C812.731 107.119 806.844 104.844 801.932 100.293C797.093 95.6704 794.673 90.1445 794.673 83.7156C794.673 77.3591 797.093 71.9054 801.932 67.3547C806.844 62.7317 812.731 60.4202 819.594 60.4202C826.456 60.4202 832.307 62.7317 837.146 67.3547C842.058 71.9054 844.514 77.3591 844.514 83.7156C844.514 90.1445 842.058 95.6704 837.146 100.293C832.307 104.844 826.456 107.119 819.594 107.119Z" fill="white" fill-opacity="0.01"/>
<path d="M45.3991 287.957L44.3145 289.638L44.3214 289.642L44.3284 289.646L45.3991 287.957ZM21.1284 259.027L19.3137 259.868L19.3195 259.881L21.1284 259.027ZM21.4535 164.437L23.2525 165.311L23.2545 165.307L21.4535 164.437ZM45.9408 135.941L46.991 137.643L46.9943 137.641L45.9408 135.941ZM102.933 131.173L102.022 132.954L102.035 132.96L102.047 132.966L102.933 131.173ZM118.103 142.875L116.552 144.139L116.563 144.152L116.574 144.165L118.103 142.875ZM126.987 156.527L125.165 157.351L125.696 158.527H126.987V156.527ZM128.396 156.527V158.527H130.396V156.527H128.396ZM128.396 73.0973V71.0973H126.396V73.0973H128.396ZM174.445 73.0973H176.445V71.0973H174.445V73.0973ZM174.445 295V297H176.445V295H174.445ZM128.938 295H126.938V297H128.938V295ZM128.938 268.346H130.938V266.346H128.938V268.346ZM126.987 268.346V266.346H125.716L125.176 267.497L126.987 268.346ZM117.777 282.106L116.271 280.791L116.269 280.793L117.777 282.106ZM102.5 293.266L101.647 291.457L101.639 291.461L102.5 293.266ZM113.227 254.91L114.465 256.48L114.468 256.478L113.227 254.91ZM125.145 237.682L123.277 236.968L123.274 236.976L123.271 236.984L125.145 237.682ZM125.254 185.999L127.126 185.295L125.254 185.999ZM75.1956 169.313L73.9542 167.745L75.1956 169.313ZM63.3853 237.466L61.5031 238.142L61.507 238.153L61.5111 238.164L63.3853 237.466ZM75.1956 254.802L73.9303 256.351L73.9421 256.36L73.9542 256.37L75.1956 254.802ZM79.7463 295.709C67.4682 295.709 56.3932 292.557 46.4697 286.268L44.3284 289.646C54.9193 296.359 66.7426 299.709 79.7463 299.709V295.709ZM46.4836 286.277C36.66 279.937 28.7993 270.604 22.9374 258.174L19.3195 259.881C25.4484 272.877 33.7681 282.831 44.3145 289.638L46.4836 286.277ZM22.9432 258.187C17.1743 245.734 14.2437 230.365 14.2437 212.003H10.2437C10.2437 230.77 13.2362 246.75 19.3137 259.868L22.9432 258.187ZM14.2437 212.003C14.2437 193.134 17.2833 177.6 23.2525 165.311L19.6545 163.563C13.3439 176.556 10.2437 192.733 10.2437 212.003H14.2437ZM23.2545 165.307C29.2588 152.874 37.185 143.693 46.991 137.643L44.8906 134.239C34.3266 140.757 25.928 150.573 19.6525 163.567L23.2545 165.307ZM46.9943 137.641C56.9313 131.483 67.7981 128.406 79.6379 128.406V124.406C67.0627 124.406 55.4648 127.686 44.8873 134.241L46.9943 137.641ZM79.6379 128.406C88.7411 128.406 96.1707 129.96 102.022 132.954L103.844 129.393C97.2719 126.03 89.1712 124.406 79.6379 124.406V128.406ZM102.047 132.966C108.115 135.965 112.931 139.698 116.552 144.139L119.653 141.611C115.617 136.662 110.32 132.593 103.82 129.38L102.047 132.966ZM116.574 144.165C120.382 148.678 123.233 153.074 125.165 157.351L128.81 155.704C126.696 151.024 123.625 146.319 119.631 141.586L116.574 144.165ZM126.987 158.527H128.396V154.527H126.987V158.527ZM130.396 156.527V73.0973H126.396V156.527H130.396ZM128.396 75.0973H174.445V71.0973H128.396V75.0973ZM172.445 73.0973V295H176.445V73.0973H172.445ZM174.445 293H128.938V297H174.445V293ZM130.938 295V268.346H126.938V295H130.938ZM128.938 266.346H126.987V270.346H128.938V266.346ZM125.176 267.497C123.101 271.923 120.143 276.356 116.271 280.791L119.284 283.422C123.358 278.755 126.539 274.014 128.798 269.195L125.176 267.497ZM116.269 280.793C112.579 285.03 107.723 288.594 101.647 291.457L103.353 295.076C109.845 292.016 115.175 288.14 119.286 283.42L116.269 280.793ZM101.639 291.461C95.7643 294.262 88.4918 295.709 79.7463 295.709V299.709C88.9148 299.709 96.8114 298.194 103.361 295.072L101.639 291.461ZM94.3737 262.978C102.197 262.978 108.936 260.842 114.465 256.48L111.988 253.34C107.261 257.068 101.43 258.978 94.3737 258.978V262.978ZM114.468 256.478C120.005 252.095 124.171 246.027 127.02 238.381L123.271 236.984C120.63 244.074 116.851 249.49 111.985 253.342L114.468 256.478ZM127.013 238.397C129.937 230.751 131.371 221.867 131.371 211.786H127.371C127.371 221.498 125.988 229.878 123.277 236.968L127.013 238.397ZM131.371 211.786C131.371 201.712 129.975 192.867 127.126 185.295L123.382 186.703C126.023 193.722 127.371 202.069 127.371 211.786H131.371ZM127.126 185.295C124.274 177.716 120.101 171.748 114.549 167.507L112.121 170.686C116.971 174.391 120.743 179.691 123.382 186.703L127.126 185.295ZM114.549 167.507C108.953 163.232 102.19 161.137 94.3737 161.137V165.137C101.438 165.137 107.316 167.015 112.121 170.686L114.549 167.507ZM94.3737 161.137C86.4064 161.137 79.5581 163.308 73.9542 167.745L76.437 170.881C81.2347 167.083 87.1719 165.137 94.3737 165.137V161.137ZM73.9542 167.745C68.4176 172.128 64.2849 178.162 61.5074 185.744L65.2633 187.12C67.831 180.111 71.5719 174.733 76.437 170.881L73.9542 167.745ZM61.5074 185.744C58.7374 193.306 57.3763 201.998 57.3763 211.786H61.3763C61.3763 202.361 62.6879 194.15 65.2633 187.12L61.5074 185.744ZM57.3763 211.786C57.3763 221.646 58.7372 230.442 61.5031 238.142L65.2675 236.79C62.6881 229.609 61.3763 221.285 61.3763 211.786H57.3763ZM61.5111 238.164C64.3566 245.802 68.4793 251.898 73.9303 256.351L76.4608 253.253C71.6546 249.327 67.9038 243.865 65.2595 236.767L61.5111 238.164ZM73.9542 256.37C79.5581 260.806 86.4064 262.978 94.3737 262.978V258.978C87.1719 258.978 81.2347 257.032 76.437 253.234L73.9542 256.37ZM244.033 287.849L243.042 289.586L243.054 289.593L244.033 287.849ZM215.645 258.161L213.869 259.079L213.871 259.083L215.645 258.161ZM215.645 167.471L213.867 166.557L215.645 167.471ZM243.708 137.241L242.685 135.522L242.681 135.525L243.708 137.241ZM317.062 131.715L316.361 133.588L316.37 133.592L316.378 133.595L317.062 131.715ZM341.983 147.426L340.576 148.847L340.583 148.855L341.983 147.426ZM358.669 173.864L356.796 174.564L356.797 174.569L358.669 173.864ZM364.628 223.597V225.597H366.628V223.597H364.628ZM224.097 223.597H222.097V225.597H224.097V223.597ZM224.097 194.992V192.992H222.097V194.992H224.097ZM321.179 194.992V196.992H323.179V194.992H321.179ZM316.845 177.331L315.103 178.313L316.845 177.331ZM304.818 165.304L303.807 167.03L303.822 167.038L303.837 167.046L304.818 165.304ZM268.521 165.737L269.543 167.456L269.55 167.452L268.521 165.737ZM255.952 178.631L257.691 179.618L257.697 179.608L255.952 178.631ZM251.293 196.509L249.293 196.487L249.293 196.498V196.509H251.293ZM255.844 245.05L254.059 245.953L254.063 245.962L254.068 245.97L255.844 245.05ZM303.085 261.628L302.443 259.734L303.085 261.628ZM314.028 255.127L312.649 253.679L314.028 255.127ZM320.963 244.508L321.094 242.513L319.617 242.415L319.093 243.799L320.963 244.508ZM363.653 247.326L365.61 247.739L366.087 245.482L363.785 245.33L363.653 247.326ZM350.326 274.197L348.822 272.878L348.821 272.879L350.326 274.197ZM324.538 291.966L325.281 293.823L325.288 293.82L324.538 291.966ZM288.241 296.251C271.393 296.251 257.009 292.84 245.012 286.105L243.054 289.593C255.762 296.727 270.849 300.251 288.241 300.251V296.251ZM245.025 286.112C233.086 279.299 223.892 269.689 217.42 257.238L213.871 259.083C220.69 272.203 230.422 282.385 243.042 289.586L245.025 286.112ZM217.422 257.242C210.951 244.723 207.677 229.845 207.677 212.545H203.677C203.677 230.35 207.048 245.883 213.869 259.079L217.422 257.242ZM207.677 212.545C207.677 195.687 210.948 180.986 217.424 168.385L213.867 166.557C207.052 179.816 203.677 195.164 203.677 212.545H207.677ZM217.424 168.385C223.905 155.776 233.004 145.982 244.736 138.957L242.681 135.525C230.286 142.947 220.677 153.307 213.867 166.557L217.424 168.385ZM244.731 138.96C256.512 131.948 270.377 128.406 286.399 128.406V124.406C269.771 124.406 255.176 128.088 242.685 135.522L244.731 138.96ZM286.399 128.406C297.16 128.406 307.141 130.14 316.361 133.588L317.763 129.842C308.057 126.212 297.597 124.406 286.399 124.406V128.406ZM316.378 133.595C325.647 136.965 333.706 142.048 340.576 148.847L343.39 146.005C336.102 138.791 327.547 133.4 317.745 129.836L316.378 133.595ZM340.583 148.855C347.499 155.631 352.912 164.184 356.796 174.564L360.542 173.163C356.48 162.307 350.769 153.235 343.382 145.997L340.583 148.855ZM356.797 174.569C360.666 184.84 362.628 196.943 362.628 210.92H366.628C366.628 196.58 364.617 183.98 360.54 173.159L356.797 174.569ZM362.628 210.92V223.597H366.628V210.92H362.628ZM364.628 221.597H224.097V225.597H364.628V221.597ZM226.097 223.597V194.992H222.097V223.597H226.097ZM224.097 196.992H321.179V192.992H224.097V196.992ZM323.179 194.992C323.179 188.048 321.667 181.814 318.588 176.349L315.103 178.313C317.802 183.105 319.179 188.645 319.179 194.992H323.179ZM318.588 176.349C315.519 170.902 311.247 166.63 305.8 163.561L303.837 167.046C308.647 169.756 312.393 173.502 315.103 178.313L318.588 176.349ZM305.829 163.578C300.424 160.412 294.177 158.862 287.157 158.862V162.862C293.572 162.862 299.1 164.273 303.807 167.03L305.829 163.578ZM287.157 158.862C279.829 158.862 273.253 160.565 267.492 164.022L269.55 167.452C274.623 164.408 280.472 162.862 287.157 162.862V158.862ZM267.499 164.018C261.852 167.376 257.413 171.929 254.207 177.654L257.697 179.608C260.559 174.498 264.499 170.455 269.543 167.456L267.499 164.018ZM254.213 177.644C251 183.304 249.369 189.599 249.293 196.487L253.293 196.531C253.362 190.272 254.836 184.649 257.691 179.618L254.213 177.644ZM249.293 196.509V223.705H253.293V196.509H249.293ZM249.293 223.705C249.293 232.184 250.855 239.622 254.059 245.953L257.628 244.147C254.764 238.488 253.293 231.696 253.293 223.705H249.293ZM254.068 245.97C257.343 252.291 261.976 257.202 267.955 260.651L269.954 257.187C264.663 254.135 260.557 249.8 257.62 244.13L254.068 245.97ZM267.955 260.651C273.946 264.108 280.985 265.795 288.999 265.795V261.795C281.555 261.795 275.231 260.232 269.954 257.187L267.955 260.651ZM288.999 265.795C294.316 265.795 299.232 265.046 303.727 263.522L302.443 259.734C298.414 261.099 293.939 261.795 288.999 261.795V265.795ZM303.727 263.522C308.243 261.991 312.148 259.679 315.407 256.575L312.649 253.679C309.841 256.353 306.45 258.375 302.443 259.734L303.727 263.522ZM315.407 256.575C318.673 253.465 321.145 249.667 322.833 245.218L319.093 243.799C317.602 247.729 315.451 251.01 312.649 253.679L315.407 256.575ZM320.831 246.504L363.521 249.321L363.785 245.33L321.094 242.513L320.831 246.504ZM361.696 246.912C359.598 256.844 355.307 265.487 348.822 272.878L351.829 275.516C358.78 267.593 363.374 258.322 365.61 247.739L361.696 246.912ZM348.821 272.879C342.407 280.199 334.082 285.952 323.789 290.112L325.288 293.82C336.086 289.457 344.953 283.363 351.83 275.515L348.821 272.879ZM323.795 290.109C313.603 294.186 301.764 296.251 288.241 296.251V300.251C302.166 300.251 314.526 298.125 325.281 293.823L323.795 290.109ZM504.726 357.41H502.726V359.41H504.726V357.41ZM504.726 268.346H506.726V266.346H504.726V268.346ZM503.317 268.346V266.346H502.046L501.506 267.497L503.317 268.346ZM494.107 282.106L492.601 280.791L492.599 280.793L494.107 282.106ZM478.83 293.266L477.977 291.457L477.969 291.461L478.83 293.266ZM421.729 287.957L420.644 289.638L420.651 289.642L420.658 289.646L421.729 287.957ZM397.458 259.027L395.644 259.868L395.649 259.881L397.458 259.027ZM397.783 164.437L399.582 165.311L399.584 165.307L397.783 164.437ZM422.271 135.941L423.321 137.643L423.324 137.641L422.271 135.941ZM479.263 131.173L478.352 132.954L478.365 132.96L478.377 132.966L479.263 131.173ZM494.432 142.875L492.882 144.139L492.893 144.152L492.904 144.165L494.432 142.875ZM503.317 156.527L501.495 157.351L502.026 158.527H503.317V156.527ZM505.268 156.527V158.527H507.268V156.527H505.268ZM505.268 128.573V126.573H503.268V128.573H505.268ZM550.775 128.573H552.775V126.573H550.775V128.573ZM550.775 357.41V359.41H552.775V357.41H550.775ZM489.557 254.91L490.795 256.48L490.798 256.478L489.557 254.91ZM501.475 237.682L499.607 236.968L499.604 236.976L499.601 236.984L501.475 237.682ZM501.584 185.999L503.456 185.295L501.584 185.999ZM451.525 169.313L450.284 167.745L451.525 169.313ZM439.715 237.466L437.833 238.142L437.837 238.153L437.841 238.164L439.715 237.466ZM451.525 254.802L450.26 256.351L450.272 256.36L450.284 256.37L451.525 254.802ZM506.726 357.41V268.346H502.726V357.41H506.726ZM504.726 266.346H503.317V270.346H504.726V266.346ZM501.506 267.497C499.431 271.923 496.473 276.356 492.601 280.791L495.614 283.422C499.688 278.755 502.869 274.014 505.128 269.195L501.506 267.497ZM492.599 280.793C488.909 285.03 484.053 288.594 477.977 291.457L479.683 295.076C486.175 292.016 491.505 288.14 495.616 283.42L492.599 280.793ZM477.969 291.461C472.094 294.262 464.822 295.709 456.076 295.709V299.709C465.245 299.709 473.141 298.194 479.691 295.072L477.969 291.461ZM456.076 295.709C443.798 295.709 432.723 292.557 422.8 286.268L420.658 289.646C431.249 296.359 443.072 299.709 456.076 299.709V295.709ZM422.814 286.277C412.99 279.937 405.129 270.604 399.267 258.174L395.649 259.881C401.778 272.877 410.098 282.831 420.644 289.638L422.814 286.277ZM399.273 258.187C393.504 245.734 390.574 230.365 390.574 212.003H386.574C386.574 230.77 389.566 246.75 395.644 259.868L399.273 258.187ZM390.574 212.003C390.574 193.134 393.613 177.6 399.582 165.311L395.984 163.563C389.674 176.556 386.574 192.733 386.574 212.003H390.574ZM399.584 165.307C405.589 152.874 413.515 143.693 423.321 137.643L421.221 134.239C410.657 140.757 402.258 150.573 395.982 163.567L399.584 165.307ZM423.324 137.641C433.261 131.483 444.128 128.406 455.968 128.406V124.406C443.393 124.406 431.795 127.686 421.217 134.241L423.324 137.641ZM455.968 128.406C465.071 128.406 472.501 129.96 478.352 132.954L480.174 129.393C473.602 126.03 465.501 124.406 455.968 124.406V128.406ZM478.377 132.966C484.445 135.965 489.261 139.698 492.882 144.139L495.983 141.611C491.947 136.662 486.65 132.593 480.15 129.38L478.377 132.966ZM492.904 144.165C496.712 148.678 499.563 153.074 501.495 157.351L505.14 155.704C503.026 151.024 499.954 146.319 495.961 141.586L492.904 144.165ZM503.317 158.527H505.268V154.527H503.317V158.527ZM507.268 156.527V128.573H503.268V156.527H507.268ZM505.268 130.573H550.775V126.573H505.268V130.573ZM548.775 128.573V357.41H552.775V128.573H548.775ZM550.775 355.41H504.726V359.41H550.775V355.41ZM470.704 262.978C478.527 262.978 485.265 260.842 490.795 256.48L488.318 253.34C483.591 257.068 477.76 258.978 470.704 258.978V262.978ZM490.798 256.478C496.335 252.095 500.501 246.027 503.349 238.381L499.601 236.984C496.96 244.074 493.181 249.49 488.315 253.342L490.798 256.478ZM503.343 238.397C506.267 230.751 507.701 221.867 507.701 211.786H503.701C503.701 221.498 502.318 229.878 499.607 236.968L503.343 238.397ZM507.701 211.786C507.701 201.712 506.305 192.867 503.456 185.295L499.712 186.703C502.353 193.722 503.701 202.069 503.701 211.786H507.701ZM503.456 185.295C500.604 177.716 496.431 171.748 490.879 167.507L488.451 170.686C493.301 174.391 497.073 179.691 499.712 186.703L503.456 185.295ZM490.879 167.507C485.283 163.232 478.52 161.137 470.704 161.137V165.137C477.768 165.137 483.646 167.015 488.451 170.686L490.879 167.507ZM470.704 161.137C462.736 161.137 455.888 163.308 450.284 167.745L452.767 170.881C457.565 167.083 463.502 165.137 470.704 165.137V161.137ZM450.284 167.745C444.747 172.128 440.615 178.162 437.837 185.744L441.593 187.12C444.161 180.111 447.902 174.733 452.767 170.881L450.284 167.745ZM437.837 185.744C435.067 193.306 433.706 201.998 433.706 211.786H437.706C437.706 202.361 439.018 194.15 441.593 187.12L437.837 185.744ZM433.706 211.786C433.706 221.646 435.067 230.442 437.833 238.142L441.597 236.79C439.018 229.609 437.706 221.285 437.706 211.786H433.706ZM437.841 238.164C440.687 245.802 444.809 251.898 450.26 256.351L452.791 253.253C447.984 249.327 444.234 243.865 441.589 236.767L437.841 238.164ZM450.284 256.37C455.888 260.806 462.736 262.978 470.704 262.978V258.978C463.502 258.978 457.565 257.032 452.767 253.234L450.284 256.37ZM596.391 290.233L594.966 291.637L594.976 291.647L594.987 291.657L596.391 290.233ZM596.391 253.61L594.987 252.186L594.982 252.191L594.977 252.196L596.391 253.61ZM633.013 253.61L631.619 255.044L633.013 253.61ZM637.131 284.923L635.429 283.872L635.424 283.88L637.131 284.923ZM627.704 294.35L628.724 296.07L628.735 296.064L628.747 296.056L627.704 294.35ZM614.81 295.817C608.189 295.817 602.552 293.499 597.795 288.808L594.987 291.657C600.486 297.079 607.13 299.817 614.81 299.817V295.817ZM597.815 288.828C593.125 284.071 590.806 278.434 590.806 271.813H586.806C586.806 279.494 589.544 286.137 594.966 291.637L597.815 288.828ZM590.806 271.813C590.806 265.27 593.119 259.71 597.805 255.024L594.977 252.196C589.549 257.623 586.806 264.198 586.806 271.813H590.806ZM597.795 255.034C602.552 250.344 608.189 248.025 614.81 248.025V244.025C607.13 244.025 600.486 246.763 594.987 252.186L597.795 255.034ZM614.81 248.025C621.198 248.025 626.773 250.332 631.619 255.044L634.407 252.176C628.852 246.775 622.292 244.025 614.81 244.025V248.025ZM631.619 255.044C636.443 259.734 638.815 265.289 638.815 271.813H642.815C642.815 264.179 639.985 257.598 634.407 252.176L631.619 255.044ZM638.815 271.813C638.815 276.217 637.686 280.222 635.429 283.872L638.832 285.975C641.487 281.679 642.815 276.944 642.815 271.813H638.815ZM635.424 283.88C633.206 287.51 630.291 290.425 626.661 292.643L628.747 296.056C632.918 293.507 636.288 290.138 638.837 285.966L635.424 283.88ZM626.685 292.629C623.104 294.751 619.16 295.817 614.81 295.817V299.817C619.851 299.817 624.503 298.572 628.724 296.07L626.685 292.629ZM768.208 128.573H770.208V126.573H768.208V128.573ZM768.208 163.245V165.245H770.208V163.245H768.208ZM665.492 163.245H663.492V165.245H665.492V163.245ZM665.492 128.573V126.573H663.492V128.573H665.492ZM689.004 295H687.004V297H689.004V295ZM696.046 86.5328L694.331 85.5037L694.325 85.5153L696.046 86.5328ZM715.55 68.6549L714.681 66.8535L715.55 68.6549ZM763.007 64.3208L762.643 66.2874L762.647 66.2882L763.007 64.3208ZM776.226 67.2463L778.172 67.7085L778.608 65.8728L776.801 65.3307L776.226 67.2463ZM767.992 101.919L767.382 103.823L769.438 104.482L769.937 102.381L767.992 101.919ZM761.274 100.293L760.892 102.257L760.902 102.258L761.274 100.293ZM739.062 104.302L740.578 105.607L740.585 105.598L740.593 105.59L739.062 104.302ZM735.053 295V297H737.053V295H735.053ZM766.208 128.573V163.245H770.208V128.573H766.208ZM768.208 161.245H665.492V165.245H768.208V161.245ZM667.492 163.245V128.573H663.492V163.245H667.492ZM665.492 130.573H768.208V126.573H665.492V130.573ZM691.004 295V116.546H687.004V295H691.004ZM691.004 116.546C691.004 104.734 693.303 95.107 697.768 87.5502L694.325 85.5153C689.4 93.85 687.004 104.232 687.004 116.546H691.004ZM697.761 87.5618C702.331 79.9456 708.54 74.2572 716.419 70.4562L714.681 66.8535C706.09 70.9983 699.297 77.2284 694.331 85.5038L697.761 87.5618ZM716.419 70.4562C724.345 66.6319 733.396 64.6955 743.613 64.6955V60.6955C732.882 60.6955 723.223 62.7321 714.681 66.8535L716.419 70.4562ZM743.613 64.6955C750.591 64.6955 756.932 65.2298 762.643 66.2874L763.372 62.3543C757.38 61.2448 750.791 60.6955 743.613 60.6955V64.6955ZM762.647 66.2882C768.555 67.3687 772.872 68.3281 775.651 69.162L776.801 65.3307C773.802 64.4309 769.307 63.4399 763.367 62.3535L762.647 66.2882ZM774.28 66.7842L766.046 101.456L769.937 102.381L778.172 67.7085L774.28 66.7842ZM768.601 100.014C766.692 99.4028 764.367 98.8431 761.646 98.3282L760.902 102.258C763.526 102.755 765.679 103.279 767.382 103.823L768.601 100.014ZM761.655 98.3301C758.925 97.7991 756.124 97.5349 753.256 97.5349V101.535C755.877 101.535 758.422 101.776 760.892 102.257L761.655 98.3301ZM753.256 97.5349C746.243 97.5349 740.77 99.164 737.531 103.015L740.593 105.59C742.699 103.084 746.689 101.535 753.256 101.535V97.5349ZM737.546 102.998C734.461 106.583 733.053 111.479 733.053 117.413H737.053C737.053 112.078 738.317 108.234 740.578 105.607L737.546 102.998ZM733.053 117.413V295H737.053V117.413H733.053ZM735.053 293H689.004V297H735.053V293ZM796.407 295H794.407V297H796.407V295ZM796.407 128.573V126.573H794.407V128.573H796.407ZM842.564 128.573H844.564V126.573H842.564V128.573ZM842.564 295V297H844.564V295H842.564ZM801.932 100.293L800.551 101.74L800.562 101.75L800.573 101.76L801.932 100.293ZM801.932 67.3547L803.302 68.8117L803.303 68.8111L801.932 67.3547ZM837.146 67.3547L835.765 68.8009L835.776 68.8114L835.787 68.8218L837.146 67.3547ZM837.146 100.293L838.517 101.75L838.517 101.75L837.146 100.293ZM798.407 295V128.573H794.407V295H798.407ZM796.407 130.573H842.564V126.573H796.407V130.573ZM840.564 128.573V295H844.564V128.573H840.564ZM842.564 293H796.407V297H842.564V293ZM819.594 105.119C813.222 105.119 807.824 103.025 803.292 98.8262L800.573 101.76C805.865 106.663 812.241 109.119 819.594 109.119V105.119ZM803.314 98.8471C798.851 94.5841 796.673 89.5734 796.673 83.7156H792.673C792.673 90.7155 795.334 96.7566 800.551 101.74L803.314 98.8471ZM796.673 83.7156C796.673 77.9382 798.844 73.0036 803.302 68.8117L800.562 65.8976C795.341 70.8072 792.673 76.7799 792.673 83.7156H796.673ZM803.303 68.8111C807.837 64.5439 813.231 62.4202 819.594 62.4202V58.4202C812.232 58.4202 805.852 60.9194 800.562 65.8983L803.303 68.8111ZM819.594 62.4202C825.956 62.4202 831.308 64.5432 835.765 68.8009L838.528 65.9084C833.306 60.9201 826.956 58.4202 819.594 58.4202V62.4202ZM835.787 68.8218C840.315 73.0168 842.514 77.9486 842.514 83.7156H846.514C846.514 76.7695 843.802 70.794 838.506 65.8875L835.787 68.8218ZM842.514 83.7156C842.514 89.5632 840.308 94.571 835.776 98.8369L838.517 101.75C843.808 96.7697 846.514 90.7257 846.514 83.7156H842.514ZM835.776 98.8363C831.321 103.026 825.965 105.119 819.594 105.119V109.119C826.946 109.119 833.293 106.662 838.517 101.75L835.776 98.8363Z" fill="url(#paint0_diamond_1_4325)" fill-opacity="0.2" mask="url(#path-1-outside-1_1_4325)"/>
<defs>
<radialGradient id="paint0_diamond_1_4325" cx="0" cy="0" r="1" gradientUnits="userSpaceOnUse" gradientTransform="translate(431 184.5) rotate(90) scale(307 717.165)">
<stop stop-color="white"/>
<stop offset="1" stop-color="white" stop-opacity="0"/>
</radialGradient>
</defs>
</svg>
