<svg width="223" height="173" viewBox="0 0 223 173" fill="none" xmlns="http://www.w3.org/2000/svg">
<g clip-path="url(#clip0_251_10896)">
<path d="M1.36768 97.002C1.36768 92.3466 5.14156 88.5728 9.79688 88.5728H124.766C129.421 88.5728 133.195 92.3466 133.195 97.002V139.562C133.195 144.218 129.421 147.992 124.766 147.992H9.79687C5.14156 147.992 1.36768 144.218 1.36768 139.562V97.002Z" fill="black" stroke="black" stroke-width="0.829102"/>
<path d="M4.68408 94.2383C4.68408 89.583 8.45796 85.8091 13.1133 85.8091H127.529C132.185 85.8091 135.958 89.583 135.958 94.2383V136.522C135.958 141.178 132.185 144.952 127.529 144.952H13.1133C8.45796 144.952 4.68408 141.178 4.68408 136.522V94.2383Z" fill="#0BABFB" stroke="black" stroke-width="0.829102"/>
<path d="M4.68408 106.26H135.958V136.799C135.958 141.454 132.185 145.228 127.529 145.228H13.1133C8.45796 145.228 4.68408 141.454 4.68408 136.799V106.26Z" fill="white" stroke="black" stroke-width="0.829102"/>
<path d="M18.0879 120.217L48.7646 120.217" stroke="black" stroke-width="0.829102" stroke-linecap="round"/>
<path d="M18.0879 127.402L34.1172 127.402" stroke="black" stroke-width="0.829102" stroke-linecap="round"/>
<circle cx="18.0879" cy="96.4492" r="4.00732" fill="#0BABFB" stroke="black" stroke-width="0.829102"/>
<circle cx="31.3535" cy="96.4492" r="4.00732" fill="white" stroke="black" stroke-width="0.829102"/>
<circle cx="44.6191" cy="96.4492" r="4.00732" fill="white" stroke="black" stroke-width="0.829102"/>
<rect x="55.5356" y="3.45166" width="131.827" height="106.954" rx="8.4292" fill="black" stroke="black" stroke-width="0.829102"/>
<rect x="58.8521" y="0.687988" width="131.274" height="105.849" rx="8.4292" fill="#0BABFB" stroke="black" stroke-width="0.829102"/>
<path d="M58.8521 21.1392H190.126V98.1074C190.126 102.763 186.353 106.537 181.697 106.537H67.2813C62.6259 106.537 58.8521 102.763 58.8521 98.1074V21.1392Z" fill="white" stroke="black" stroke-width="0.829102"/>
<mask id="path-12-inside-1_251_10896" fill="white">
<path d="M58.4371 20.7243H190.541V106.951H58.4371V20.7243Z"/>
</mask>
<path d="M58.4371 20.7243V19.8952H57.608V20.7243H58.4371ZM190.541 20.7243H191.37V19.8952H190.541V20.7243ZM190.541 106.951V107.78H191.37V106.951H190.541ZM58.4371 106.951H57.608V107.78H58.4371V106.951ZM58.4371 21.5534H190.541V19.8952H58.4371V21.5534ZM189.712 20.7243V106.951H191.37V20.7243H189.712ZM190.541 106.122H58.4371V107.78H190.541V106.122ZM59.2662 106.951V20.7243H57.608V106.951H59.2662Z" fill="black" mask="url(#path-12-inside-1_251_10896)"/>
<path d="M80.9581 101C80.0684 101 79.1787 100.803 78.3879 100.309C76.0154 98.9267 75.3234 95.8662 76.7074 93.4968L88.7676 73.3565C89.6573 71.9743 91.1402 70.987 92.8207 70.987C94.5012 70.8883 96.0829 71.6781 97.0714 73.0603L102.212 80.1686L113.086 61.608C113.877 60.2258 115.458 59.2385 117.04 59.1398C118.721 59.0411 120.302 59.8309 121.291 61.1143L130.781 73.8501L155.791 32.3848C157.175 30.0154 160.24 29.3243 162.612 30.7065C164.985 32.0886 165.677 35.1492 164.293 37.5186L135.526 85.2037C134.636 86.5859 133.153 87.4744 131.572 87.5731C129.891 87.6719 128.31 86.8821 127.321 85.5986L117.831 72.9616L106.858 91.5222C105.968 93.0031 104.486 93.8917 102.805 93.9904C101.124 94.0891 99.5428 93.2993 98.5543 91.9171L93.4138 84.8088L85.2089 98.5318C84.3192 100.111 82.6387 101 80.9581 101Z" fill="#E3E3E3"/>
<path d="M58.8521 21.1392H190.126V98.1074C190.126 102.763 186.353 106.537 181.697 106.537H67.2813C62.6259 106.537 58.8521 102.763 58.8521 98.1074V21.1392Z" stroke="black" stroke-width="0.829102"/>
<circle cx="72.2559" cy="11.3281" r="4.00732" fill="#0BABFB" stroke="black" stroke-width="0.829102"/>
<circle cx="85.5215" cy="11.3281" r="4.00732" fill="white" stroke="black" stroke-width="0.829102"/>
<circle cx="98.7871" cy="11.3281" r="4.00732" fill="white" stroke="black" stroke-width="0.829102"/>
<rect x="31.3535" y="172.174" width="39.7969" height="177.428" rx="13.2656" transform="rotate(-90 31.3535 172.174)" fill="black"/>
<rect x="35.0845" y="167.89" width="38.9678" height="176.599" rx="12.8511" transform="rotate(-90 35.0845 167.89)" fill="#0BABFB" stroke="black" stroke-width="0.829102"/>
<path d="M194.41 148.406L51.8047 148.406" stroke="black" stroke-width="0.829102" stroke-linecap="round"/>
<path d="M137.755 148.472L54.5684 148.472" stroke="black" stroke-width="9.94922" stroke-linecap="round"/>
<rect x="167.188" y="78.8999" width="47.2588" height="49.4697" rx="12.8511" transform="rotate(-90 167.188 78.8999)" fill="black" stroke="black" stroke-width="0.829102"/>
<rect x="172.163" y="76.1362" width="47.2588" height="49.4697" rx="12.8511" transform="rotate(-90 172.163 76.1362)" fill="#0BABFB" stroke="black" stroke-width="0.829102"/>
<path d="M198.177 37.5139C197.485 36.3163 195.757 36.3163 195.065 37.5139L189.321 47.4631C188.63 48.6607 189.494 50.1577 190.877 50.1577L202.365 50.1577C203.748 50.1577 204.612 48.6607 203.921 47.4631L198.177 37.5139Z" fill="black" stroke="black" stroke-width="0.829102"/>
<path d="M198.177 52.9905C197.485 51.7929 195.757 51.7929 195.065 52.9905L189.321 62.9397C188.63 64.1373 189.494 65.6343 190.877 65.6343L202.365 65.6343C203.748 65.6343 204.612 64.1373 203.921 62.9397L198.177 52.9905Z" stroke="black" stroke-width="0.829102"/>
</g>
<defs>
<clipPath id="clip0_251_10896">
<rect width="223" height="173" fill="white"/>
</clipPath>
</defs>
</svg>
