<svg width="105" height="33" viewBox="0 0 105 33" fill="none" xmlns="http://www.w3.org/2000/svg">
<path d="M12.4265 28.714L4.14657 28.714C3.8804 28.714 3.73218 28.4069 3.89714 28.198L13.3875 16.18C13.6104 15.8978 13.9052 15.6777 14.2505 15.5774C17.6653 14.5852 22.1525 15.6248 23.0022 17.3411C23.6347 20.8912 16.0325 28.714 12.4265 28.714Z" fill="#235A9E"/>
<path d="M14.5807 22.1198H4.41204C4.0575 22.1198 3.8537 21.7165 4.06401 21.4311L12.6666 9.75516C12.8839 9.46015 13.1781 9.21928 13.5349 9.13567C16.464 8.44919 18.6854 11.7301 19.463 13.4134C20.8203 18.0773 18.5682 20.8105 16.5288 21.7863C15.9268 22.0743 15.248 22.1198 14.5807 22.1198Z" fill="#2486D0"/>
<path d="M8.87307 5.03475C8.09912 6.23016 6.16807 9.23923 4.06883 12.7126C3.9384 12.9284 4.09245 13.2037 4.3446 13.2032C6.49531 13.1987 9.20481 13.1708 11.1467 13.1474C12.8149 13.1274 14.5494 13.232 15.9594 14.1238C16.6048 14.5321 17.1097 14.9909 17.5122 15.4652C18.6743 16.8341 19.1014 18.7426 18.579 20.4606C17.4681 24.1145 13.8033 28.2405 12.2139 28.714C13.6599 28.714 15.0888 28.4666 16.4513 28.0691C23.8739 25.9035 31.5057 18.387 28.4396 11.2888C28.324 11.0212 28.1902 10.7567 28.0366 10.4966C24.3787 4.30058 14.581 4.24135 9.88219 4.45266C9.46986 4.47121 9.09739 4.68828 8.87307 5.03475Z" fill="#00AAFF"/>
<path d="M48.2764 6.54571C48.7321 6.54571 49.1089 6.69469 49.4069 6.99264C49.7048 7.29058 49.8538 7.67617 49.8538 8.14938V24.3963C49.8538 24.852 49.7048 25.2376 49.4069 25.5531C49.1089 25.851 48.7321 26 48.2764 26C47.8207 26 47.4439 25.851 47.146 25.5531C46.848 25.2376 46.699 24.852 46.699 24.3963V23.1081L47.2774 23.3448C47.2774 23.5726 47.1547 23.853 46.9094 24.186C46.664 24.5015 46.331 24.817 45.9104 25.1324C45.4897 25.4479 44.9902 25.7196 44.4119 25.9474C43.851 26.1577 43.2376 26.2629 42.5716 26.2629C41.3623 26.2629 40.2669 25.9562 39.2854 25.3428C38.3039 24.7118 37.524 23.853 36.9456 22.7664C36.3848 21.6622 36.1043 20.4003 36.1043 18.9807C36.1043 17.5435 36.3848 16.2816 36.9456 15.195C37.524 14.0908 38.2951 13.232 39.2591 12.6186C40.223 11.9877 41.2922 11.6722 42.4664 11.6722C43.2201 11.6722 43.9124 11.7861 44.5433 12.0139C45.1743 12.2418 45.7176 12.531 46.1733 12.8815C46.6465 13.232 47.0058 13.5913 47.2511 13.9594C47.514 14.3099 47.6455 14.6078 47.6455 14.8532L46.699 15.195V8.14938C46.699 7.69369 46.848 7.31687 47.146 7.01892C47.4439 6.70345 47.8207 6.54571 48.2764 6.54571ZM42.9659 23.371C43.7371 23.371 44.4119 23.1783 44.9902 22.7927C45.5686 22.4071 46.0155 21.8813 46.331 21.2153C46.664 20.5493 46.8305 19.8044 46.8305 18.9807C46.8305 18.1394 46.664 17.3858 46.331 16.7198C46.0155 16.0538 45.5686 15.528 44.9902 15.1424C44.4119 14.7568 43.7371 14.564 42.9659 14.564C42.2123 14.564 41.5463 14.7568 40.9679 15.1424C40.3895 15.528 39.9339 16.0538 39.6009 16.7198C39.2854 17.3858 39.1276 18.1394 39.1276 18.9807C39.1276 19.8044 39.2854 20.5493 39.6009 21.2153C39.9339 21.8813 40.3895 22.4071 40.9679 22.7927C41.5463 23.1783 42.2123 23.371 42.9659 23.371ZM58.843 26.2629C57.3532 26.2629 56.0563 25.9562 54.9521 25.3428C53.8655 24.7118 53.0242 23.8618 52.4283 22.7927C51.85 21.7236 51.5608 20.5142 51.5608 19.1647C51.5608 17.5873 51.8762 16.2466 52.5072 15.1424C53.1557 14.0207 53.9969 13.1619 55.031 12.566C56.0651 11.9701 57.1604 11.6722 58.3172 11.6722C59.211 11.6722 60.0523 11.8562 60.841 12.2243C61.6472 12.5923 62.357 13.1006 62.9704 13.7491C63.5839 14.38 64.0658 15.1161 64.4164 15.9574C64.7844 16.7986 64.9685 17.6925 64.9685 18.6389C64.9509 19.0596 64.7844 19.4013 64.469 19.6642C64.1535 19.9271 63.7854 20.0586 63.3648 20.0586H53.3222L52.5335 17.4296H62.1818L61.6034 17.9554V17.2456C61.5683 16.7373 61.3843 16.2816 61.0513 15.8785C60.7358 15.4754 60.3327 15.1599 59.842 14.9321C59.3688 14.6867 58.8605 14.564 58.3172 14.564C57.7914 14.564 57.3007 14.6341 56.845 14.7744C56.3893 14.9146 55.9949 15.1512 55.6619 15.4842C55.3289 15.8172 55.066 16.2641 54.8733 16.8249C54.6805 17.3858 54.5841 18.0956 54.5841 18.9544C54.5841 19.9008 54.7769 20.707 55.1624 21.373C55.5655 22.0215 56.0738 22.521 56.6872 22.8715C57.3182 23.2045 57.9842 23.371 58.6852 23.371C59.3337 23.371 59.8507 23.3185 60.2363 23.2133C60.6219 23.1081 60.9286 22.9855 61.1565 22.8453C61.4018 22.6875 61.6209 22.5561 61.8137 22.4509C62.1292 22.2932 62.4271 22.2143 62.7076 22.2143C63.0931 22.2143 63.4086 22.3457 63.654 22.6086C63.9169 22.8715 64.0483 23.1783 64.0483 23.5288C64.0483 24.002 63.8029 24.4314 63.3122 24.817C62.8565 25.2025 62.2168 25.5443 61.3931 25.8423C60.5693 26.1227 59.7193 26.2629 58.843 26.2629ZM78.188 11.9351C78.6437 11.9351 79.0205 12.0841 79.3185 12.382C79.6164 12.6799 79.7654 13.0655 79.7654 13.5387V29.6543C79.7654 30.1099 79.6164 30.4868 79.3185 30.7847C79.0205 31.1002 78.6437 31.2579 78.188 31.2579C77.7323 31.2579 77.3555 31.1002 77.0576 30.7847C76.7596 30.4868 76.6106 30.1099 76.6106 29.6543V23.1081L77.189 23.3448C77.189 23.5726 77.0663 23.853 76.8209 24.186C76.5756 24.5015 76.2426 24.817 75.8219 25.1324C75.4013 25.4479 74.9018 25.7196 74.3234 25.9474C73.7626 26.1577 73.1492 26.2629 72.4832 26.2629C71.2738 26.2629 70.1784 25.9562 69.197 25.3428C68.2155 24.7118 67.4356 23.853 66.8572 22.7664C66.2964 21.6622 66.0159 20.4003 66.0159 18.9807C66.0159 17.5435 66.2964 16.2816 66.8572 15.195C67.4356 14.0908 68.2067 13.232 69.1707 12.6186C70.1346 11.9877 71.2037 11.6722 72.378 11.6722C73.1316 11.6722 73.8239 11.7861 74.4549 12.0139C75.0858 12.2418 75.6292 12.531 76.0848 12.8815C76.558 13.232 76.9173 13.5913 77.1627 13.9594C77.4256 14.3099 77.5571 14.6078 77.5571 14.8532L76.6106 15.195V13.5387C76.6106 13.0831 76.7596 12.7062 77.0576 12.4083C77.3555 12.0928 77.7323 11.9351 78.188 11.9351ZM72.8775 23.371C73.6487 23.371 74.3234 23.1783 74.9018 22.7927C75.4802 22.4071 75.9271 21.8813 76.2426 21.2153C76.5756 20.5493 76.7421 19.8044 76.7421 18.9807C76.7421 18.1394 76.5756 17.3858 76.2426 16.7198C75.9271 16.0538 75.4802 15.528 74.9018 15.1424C74.3234 14.7568 73.6487 14.564 72.8775 14.564C72.1239 14.564 71.4579 14.7568 70.8795 15.1424C70.3011 15.528 69.8454 16.0538 69.5124 16.7198C69.197 17.3858 69.0392 18.1394 69.0392 18.9807C69.0392 19.8044 69.197 20.5493 69.5124 21.2153C69.8454 21.8813 70.3011 22.4071 70.8795 22.7927C71.4579 23.1783 72.1239 23.371 72.8775 23.371ZM83.5229 25.9737C83.0147 25.9737 82.6203 25.8423 82.3399 25.5794C82.077 25.2989 81.9456 24.9046 81.9456 24.3963V23.9494C81.9456 23.4411 82.077 23.0556 82.3399 22.7927C82.6203 22.5122 83.0147 22.372 83.5229 22.372H83.8647C84.373 22.372 84.7585 22.5122 85.0214 22.7927C85.3019 23.0556 85.4421 23.4411 85.4421 23.9494V24.3963C85.4421 24.9046 85.3019 25.2989 85.0214 25.5794C84.7585 25.8423 84.373 25.9737 83.8647 25.9737H83.5229ZM94.8544 6.54571C95.2399 6.54571 95.6168 6.59829 95.9848 6.70345C96.3529 6.80861 96.6596 6.98387 96.9049 7.22924C97.1503 7.45709 97.273 7.7638 97.273 8.14938C97.273 8.58754 97.1416 8.93806 96.8787 9.20096C96.6333 9.44633 96.3441 9.56902 96.0111 9.56902C95.8534 9.56902 95.6168 9.53396 95.3013 9.46386C94.9858 9.37622 94.6791 9.33241 94.3811 9.33241C93.943 9.33241 93.6012 9.4288 93.3559 9.62159C93.128 9.81438 92.9703 10.0422 92.8826 10.3051C92.795 10.5505 92.7512 10.7696 92.7512 10.9624V24.3963C92.7512 24.852 92.6022 25.2376 92.3043 25.5531C92.0063 25.851 91.6295 26 91.1738 26C90.7181 26 90.3413 25.851 90.0434 25.5531C89.7454 25.2376 89.5964 24.852 89.5964 24.3963V10.9887C89.5964 9.74428 90.0346 8.6927 90.9109 7.8339C91.7872 6.97511 93.1017 6.54571 94.8544 6.54571ZM95.1435 12.198C95.5642 12.198 95.9147 12.3382 96.1951 12.6186C96.4756 12.8815 96.6158 13.2233 96.6158 13.6439C96.6158 14.0645 96.4756 14.4151 96.1951 14.6955C95.9147 14.9584 95.5642 15.0898 95.1435 15.0898H88.1768C87.7562 15.0898 87.4056 14.9584 87.1252 14.6955C86.8448 14.4151 86.7046 14.0645 86.7046 13.6439C86.7046 13.2233 86.8448 12.8815 87.1252 12.6186C87.4056 12.3382 87.7562 12.198 88.1768 12.198H95.1435ZM102.084 24.3963C102.084 24.852 101.935 25.2376 101.637 25.5531C101.339 25.851 100.962 26 100.507 26C100.051 26 99.6741 25.851 99.3762 25.5531C99.0782 25.2376 98.9292 24.852 98.9292 24.3963V13.5387C98.9292 13.0831 99.0782 12.7062 99.3762 12.4083C99.6741 12.0928 100.051 11.9351 100.507 11.9351C100.962 11.9351 101.339 12.0928 101.637 12.4083C101.935 12.7062 102.084 13.0831 102.084 13.5387V24.3963ZM100.48 10.2263C99.8844 10.2263 99.4638 10.1299 99.2184 9.93707C98.9731 9.74428 98.8504 9.40251 98.8504 8.91177V8.41227C98.8504 7.90401 98.9818 7.56224 99.2447 7.38698C99.5251 7.19419 99.9458 7.09779 100.507 7.09779C101.12 7.09779 101.549 7.19419 101.795 7.38698C102.04 7.57977 102.163 7.92153 102.163 8.41227V8.91177C102.163 9.42004 102.031 9.77057 101.769 9.96336C101.506 10.1386 101.076 10.2263 100.48 10.2263Z" fill="white"/>
</svg>
