<svg width="219" height="166" viewBox="0 0 219 166" fill="none" xmlns="http://www.w3.org/2000/svg">
<path d="M19.1928 152.279C16.0197 152.279 13.4475 149.707 13.4475 146.534C13.4475 143.361 16.0197 140.789 19.1928 140.789L33.2056 140.789C36.3786 140.789 38.9509 143.361 38.9509 146.534C38.9509 149.707 36.3786 152.279 33.2056 152.279L19.1928 152.279Z" fill="white" stroke="black" stroke-width="0.840771"/>
<path d="M55.0657 152.279C51.8927 152.279 49.3204 149.707 49.3204 146.534C49.3204 143.361 51.8927 140.789 55.0657 140.789L69.0785 140.789C72.2516 140.789 74.8238 143.361 74.8238 146.534C74.8238 149.707 72.2516 152.279 69.0785 152.279L55.0657 152.279Z" fill="white" stroke="black" stroke-width="0.840771"/>
<path d="M177.258 152.279C174.085 152.279 171.512 149.707 171.512 146.534C171.512 143.361 174.085 140.789 177.258 140.789L191.271 140.789C194.444 140.789 197.016 143.361 197.016 146.534C197.016 149.707 194.444 152.279 191.271 152.279L177.258 152.279Z" fill="white" stroke="black" stroke-width="0.840771"/>
<rect x="-0.420386" y="-0.420386" width="146.014" height="177.963" rx="13.032" transform="matrix(3.41176e-08 -1 -1 -5.60029e-08 178.099 146.254)" fill="black" stroke="black" stroke-width="0.840771"/>
<rect x="-0.420386" y="-0.420386" width="146.014" height="177.963" rx="13.032" transform="matrix(3.41176e-08 -1 -1 -5.60029e-08 211.729 146.254)" fill="#0BABFB" stroke="black" stroke-width="0.840771"/>
<rect x="-0.420386" y="-0.420386" width="123.593" height="148.817" rx="8.54784" transform="matrix(4.36237e-08 -1 -1 -4.37993e-08 197.156 135.044)" fill="white" stroke="black" stroke-width="0.840771"/>
<mask id="path-7-inside-1_251_10839" fill="white">
<path fill-rule="evenodd" clip-rule="evenodd" d="M197.997 127.167C197.997 132.12 193.981 136.135 189.028 136.135L57.3075 136.135C56.3393 136.135 55.407 135.982 54.5334 135.698L183.984 135.698C188.937 135.698 192.952 131.683 192.952 126.73V20.6069C192.952 15.6539 188.937 11.6387 183.984 11.6387L54.5267 11.6387C55.4022 11.3534 56.3369 11.1992 57.3075 11.1992L189.028 11.1992C193.981 11.1992 197.997 15.2144 197.997 20.1674V127.167Z"/>
</mask>
<path fill-rule="evenodd" clip-rule="evenodd" d="M197.997 127.167C197.997 132.12 193.981 136.135 189.028 136.135L57.3075 136.135C56.3393 136.135 55.407 135.982 54.5334 135.698L183.984 135.698C188.937 135.698 192.952 131.683 192.952 126.73V20.6069C192.952 15.6539 188.937 11.6387 183.984 11.6387L54.5267 11.6387C55.4022 11.3534 56.3369 11.1992 57.3075 11.1992L189.028 11.1992C193.981 11.1992 197.997 15.2144 197.997 20.1674V127.167Z" fill="black"/>
<path d="M189.028 136.135V136.976V136.135ZM57.3075 136.135L57.3075 135.295H57.3075V136.135ZM54.5334 135.698L54.5334 134.857L54.2736 136.498L54.5334 135.698ZM183.984 135.698V136.539V135.698ZM183.984 11.6387V12.4794V11.6387ZM54.5267 11.6387L54.2663 10.8393L54.5267 12.4794L54.5267 11.6387ZM57.3075 11.1992L57.3075 10.3584H57.3075V11.1992ZM189.028 11.1992V12.04V11.1992ZM189.028 136.976C194.446 136.976 198.837 132.584 198.837 127.167H197.156C197.156 131.656 193.517 135.295 189.028 135.295V136.976ZM57.3075 136.976L189.028 136.976V135.295L57.3075 135.295L57.3075 136.976ZM54.2736 136.498C55.23 136.808 56.25 136.976 57.3075 136.976V135.295C56.4286 135.295 55.5839 135.155 54.7933 134.898L54.2736 136.498ZM54.5334 136.539L183.984 136.539V134.857L54.5334 134.857L54.5334 136.539ZM183.984 136.539C189.401 136.539 193.793 132.147 193.793 126.73H192.111C192.111 131.218 188.472 134.857 183.984 134.857V136.539ZM193.793 126.73V20.6069H192.111V126.73H193.793ZM193.793 20.6069C193.793 15.1895 189.401 10.7979 183.984 10.7979V12.4794C188.472 12.4794 192.111 16.1182 192.111 20.6069H193.793ZM183.984 10.7979L54.5267 10.7979L54.5267 12.4794L183.984 12.4794V10.7979ZM57.3075 10.3584C56.2473 10.3584 55.2248 10.5269 54.2663 10.8393L54.7872 12.4381C55.5796 12.1799 56.4264 12.04 57.3075 12.04V10.3584ZM189.028 10.3584L57.3075 10.3584L57.3075 12.04L189.028 12.04V10.3584ZM198.837 20.1674C198.837 14.7501 194.446 10.3584 189.028 10.3584V12.04C193.517 12.04 197.156 15.6788 197.156 20.1674H198.837ZM198.837 127.167V20.1674H197.156V127.167H198.837Z" fill="black" mask="url(#path-7-inside-1_251_10839)"/>
<rect x="52.9636" y="58.113" width="7.56694" height="25.5034" rx="3.78347" transform="rotate(180 52.9636 58.113)" fill="#0ED065" stroke="black" stroke-width="0.840771"/>
<rect x="52.9636" y="114.725" width="7.56694" height="25.5034" rx="3.78347" transform="rotate(180 52.9636 114.725)" fill="#0ED065" stroke="black" stroke-width="0.840771"/>
<path d="M45.5369 45.6416L52.8236 45.6416" stroke="black" stroke-width="0.840771" stroke-linecap="round"/>
<path d="M45.5369 101.693L52.8236 101.693" stroke="black" stroke-width="0.840771" stroke-linecap="round"/>
<rect x="-0.420386" y="-0.420386" width="76.5102" height="91.6441" rx="8.54784" transform="matrix(4.36237e-08 -1 -1 -4.37993e-08 164.086 111.502)" fill="black" stroke="black" stroke-width="0.840771"/>
<rect x="-0.420386" y="-0.420386" width="76.5102" height="91.6441" rx="8.54784" transform="matrix(4.36237e-08 -1 -1 -4.37993e-08 168.57 111.502)" fill="#0BABFB" stroke="black" stroke-width="0.840771"/>
<rect x="111.257" y="69.043" width="7.00643" height="16.5352" rx="3.50321" transform="rotate(90 111.257 69.043)" fill="black" stroke="black" stroke-width="0.840771"/>
<rect x="111.257" y="82.4954" width="7.00643" height="16.5352" rx="3.50321" transform="rotate(90 111.257 82.4954)" fill="black" stroke="black" stroke-width="0.840771"/>
<rect x="111.257" y="95.9477" width="7.00643" height="16.5352" rx="3.50321" transform="rotate(90 111.257 95.9477)" fill="black" stroke="black" stroke-width="0.840771"/>
<rect x="131.996" y="69.043" width="7.00643" height="16.5352" rx="3.50321" transform="rotate(90 131.996 69.043)" fill="black" stroke="black" stroke-width="0.840771"/>
<rect x="131.996" y="82.4954" width="7.00643" height="16.5352" rx="3.50321" transform="rotate(90 131.996 82.4954)" fill="black" stroke="black" stroke-width="0.840771"/>
<rect x="131.996" y="95.9477" width="7.00643" height="16.5352" rx="3.50321" transform="rotate(90 131.996 95.9477)" fill="black" stroke="black" stroke-width="0.840771"/>
<rect x="152.735" y="69.043" width="7.00643" height="16.5352" rx="3.50321" transform="rotate(90 152.735 69.043)" fill="black" stroke="black" stroke-width="0.840771"/>
<rect x="152.735" y="82.4954" width="7.00643" height="16.5352" rx="3.50321" transform="rotate(90 152.735 82.4954)" fill="black" stroke="black" stroke-width="0.840771"/>
<rect x="152.735" y="95.9477" width="7.00643" height="16.5352" rx="3.50321" transform="rotate(90 152.735 95.9477)" fill="black" stroke="black" stroke-width="0.840771"/>
<rect x="111.257" y="66.801" width="7.56694" height="16.5352" rx="3.78347" transform="rotate(90 111.257 66.801)" fill="white" stroke="black" stroke-width="0.840771"/>
<rect x="111.257" y="80.2533" width="7.56694" height="16.5352" rx="3.78347" transform="rotate(90 111.257 80.2533)" fill="white" stroke="black" stroke-width="0.840771"/>
<rect x="111.257" y="93.7057" width="7.56694" height="16.5352" rx="3.78347" transform="rotate(90 111.257 93.7057)" fill="white" stroke="black" stroke-width="0.840771"/>
<rect x="131.996" y="66.801" width="7.56694" height="16.5352" rx="3.78347" transform="rotate(90 131.996 66.801)" fill="white" stroke="black" stroke-width="0.840771"/>
<rect x="131.996" y="80.2533" width="7.56694" height="16.5352" rx="3.78347" transform="rotate(90 131.996 80.2533)" fill="#0ED065" stroke="black" stroke-width="0.840771"/>
<rect x="131.996" y="93.7057" width="7.56694" height="16.5352" rx="3.78347" transform="rotate(90 131.996 93.7057)" fill="white" stroke="black" stroke-width="0.840771"/>
<rect x="152.735" y="66.801" width="7.56694" height="16.5352" rx="3.78347" transform="rotate(90 152.735 66.801)" fill="white" stroke="black" stroke-width="0.840771"/>
<rect x="152.735" y="80.2533" width="7.56694" height="16.5352" rx="3.78347" transform="rotate(90 152.735 80.2533)" fill="white" stroke="black" stroke-width="0.840771"/>
<rect x="152.735" y="93.7057" width="7.56694" height="16.5352" rx="3.78347" transform="rotate(90 152.735 93.7057)" fill="white" stroke="black" stroke-width="0.840771"/>
<rect x="93.7411" y="43.96" width="57.733" height="15.6944" rx="4.48411" fill="black"/>
<rect x="95.2826" y="43.8199" width="56.8922" height="14.8536" rx="4.06373" fill="white" stroke="black" stroke-width="0.840771"/>
<path d="M108.875 51.8072L124.429 51.8072M143.627 51.8072L132.206 51.8072" stroke="black" stroke-width="0.840771" stroke-linecap="round"/>
<rect x="201.5" y="86.1387" width="14.2931" height="25.5034" rx="4.06373" transform="rotate(180 201.5 86.1387)" fill="black" stroke="black" stroke-width="0.840771"/>
<rect x="204.863" y="86.1387" width="14.2931" height="25.5034" rx="4.06373" transform="rotate(180 204.863 86.1387)" fill="white" stroke="black" stroke-width="0.840771"/>
<path d="M197.436 69.1832V77.0304" stroke="black" stroke-width="0.840771" stroke-linecap="round"/>
</svg>
