<svg width="39" height="33" viewBox="0 0 39 33" fill="none" xmlns="http://www.w3.org/2000/svg">
<path id="Path-3" fill-rule="evenodd" clip-rule="evenodd" d="M2.8059 14.078C13.1908 9.5242 20.1326 6.58089 23.6312 5.13701C33.5163 1.02748 35.571 0.305534 36.9039 0.25C37.1815 0.25 37.8479 0.305535 38.2922 0.638739C38.6254 0.91641 38.7365 1.30515 38.792 1.58282C38.8476 1.86049 38.9031 2.47137 38.8476 2.97117C38.2922 8.58012 36.0153 22.2971 34.7936 28.5724C34.2938 31.2381 33.2941 32.1266 32.3501 32.2377C30.2953 32.4043 28.6848 30.8493 26.6856 29.572C23.5757 27.5173 21.7986 26.24 18.7442 24.2408C15.2455 21.9083 17.5224 20.631 19.5217 18.5763C20.0215 18.0209 29.1846 9.74634 29.3512 8.96886C29.3512 8.85779 29.4068 8.52459 29.1846 8.35799C28.9625 8.19139 28.6848 8.24692 28.4627 8.30245C28.1295 8.35799 23.1314 11.69 13.4129 18.2431C11.969 19.2427 10.6917 19.687 9.52553 19.687C8.24824 19.687 5.80474 18.965 3.97211 18.3541C1.75075 17.6322 -0.0263462 17.2435 0.140256 16.0217C0.251325 15.4108 1.13987 14.7444 2.8059 14.078Z" fill="white"/>
</svg>
