<svg width="33" height="33" viewBox="0 0 33 33" fill="none" xmlns="http://www.w3.org/2000/svg">
<g id="Clip path group">
<mask id="mask0_251_4966" style="mask-type:luminance" maskUnits="userSpaceOnUse" x="0" y="0" width="33" height="33">
<g id="clip0_1_2">
<path id="Vector" d="M32.5 0.75H0.5V32.75H32.5V0.75Z" fill="white"/>
</g>
</mask>
<g mask="url(#mask0_251_4966)">
<g id="Group">
<path id="Vector_2" d="M24.5772 32.75H8.42273C4.05414 32.75 0.5 29.1961 0.5 24.8273V8.67297C0.5 4.30428 4.05414 0.750122 8.42273 0.750122H24.5772C28.9459 0.750122 32.5 4.30428 32.5 8.67297V24.8273C32.5 29.1961 28.9459 32.75 24.5772 32.75Z" fill="white"/>
<path id="Vector_3" d="M21.4977 10.8772L19.9199 16.803L18.3369 10.8772H14.694L13.0958 16.8466L11.5029 10.8772H7.3537L11.2092 23.9791H14.7888L16.5005 17.8951L18.2121 23.9791H21.7994L25.6465 10.8772H21.4977Z" fill="#1F1F1F"/>
</g>
</g>
</g>
</svg>
